<svg width="677" height="245" viewBox="0 0 677 245" fill="none" xmlns="http://www.w3.org/2000/svg">
<path d="M84.408 78.552C84.152 79.1493 83.1707 79.6187 81.464 79.96C79.7573 80.3013 77.0267 80.6853 73.272 81.112C72.1627 81.1973 70.4987 81.2827 68.28 81.368C66.1467 81.4533 63.8 81.5387 61.24 81.624C58.7653 81.7093 56.504 81.752 54.456 81.752C52.408 81.6667 51 81.5387 50.232 81.368C50.232 81.368 50.0187 81.5813 49.592 82.008C49.2507 82.4347 49.08 82.9893 49.08 83.672C48.4827 84.696 47.7147 86.2747 46.776 88.408C45.9227 90.5413 44.9413 92.888 43.832 95.448C42.808 98.008 41.8267 100.568 40.888 103.128C40.0347 105.688 39.3093 107.907 38.712 109.784C38.1147 111.661 37.816 112.941 37.816 113.624C37.048 115.672 36.5787 117.421 36.408 118.872C36.2373 120.323 35.9387 121.176 35.512 121.432C35.4267 121.773 34.872 121.859 33.848 121.688C32.824 121.517 31.9707 121.048 31.288 120.28C30.264 119.512 29.6667 118.829 29.496 118.232C29.4107 117.549 29.6667 116.269 30.264 114.392C30.52 113.283 30.9467 111.661 31.544 109.528C32.2267 107.309 32.952 104.877 33.72 102.232C34.5733 99.5867 35.4267 97.0267 36.28 94.552C37.2187 91.992 38.1147 89.9013 38.968 88.28C39.9067 86.6587 40.504 85.208 40.76 83.928C41.016 82.5627 41.3573 81.3253 41.784 80.216C41.6987 79.2773 41.6987 78.6373 41.784 78.296C41.8693 77.9547 42.2107 77.4427 42.808 76.76C43.2347 76.4187 43.7467 75.8213 44.344 74.968C45.0267 74.0293 45.7947 72.6213 46.648 70.744C46.904 69.8907 47.288 68.7387 47.8 67.288C48.3973 65.752 48.952 64.216 49.464 62.68C49.976 61.0587 50.4453 59.6933 50.872 58.584C51.2987 57.4747 51.512 56.8773 51.512 56.792C51.6827 56.4507 51.9387 55.8107 52.28 54.872C52.6213 53.848 52.8773 53.0373 53.048 52.44C53.3893 51.2453 53.6453 50.264 53.816 49.496C54.072 48.728 54.0293 48.344 53.688 48.344C53.0053 48.5147 51.64 48.6427 49.592 48.728C48.568 48.8987 47.8 49.0267 47.288 49.112C46.8613 49.112 46.4773 49.1547 46.136 49.24C45.2827 49.3253 44.5147 49.24 43.832 48.984C43.1493 48.728 42.808 48.216 42.808 47.448C42.9787 46.0827 43.448 44.9733 44.216 44.12C45.0693 43.1813 46.136 42.6693 47.416 42.584C48.0133 42.4133 48.6533 42.2853 49.336 42.2C50.104 42.0293 51.128 41.7733 52.408 41.432C54.0293 41.0907 55.2667 40.8347 56.12 40.664C57.0587 40.408 57.784 40.3653 58.296 40.536C58.7227 40.28 59.1067 40.024 59.448 39.768C59.7893 39.4267 59.96 39.0853 59.96 38.744C59.96 38.3173 60.1307 38.0187 60.472 37.848C60.8987 37.592 61.368 37.464 61.88 37.464C62.392 37.3787 62.904 37.4213 63.416 37.592C64.0133 37.7627 64.44 38.0613 64.696 38.488C64.8667 38.744 65.2507 38.9573 65.848 39.128C66.4453 39.2987 67.512 39.2987 69.048 39.128C70.6693 38.872 72.9307 38.4453 75.832 37.848C77.368 37.6773 79.288 37.5067 81.592 37.336C83.9813 37.1653 85.8587 37.2933 87.224 37.72C88.6747 37.464 89.9547 37.3787 91.064 37.464C92.2587 37.464 93.0693 37.2933 93.496 36.952C95.288 37.2933 96.568 37.5493 97.336 37.72C98.1893 37.8053 98.872 38.0613 99.384 38.488C99.7253 38.8293 99.8107 39.1707 99.64 39.512C99.5547 39.768 99.512 39.896 99.512 39.896C99.1707 39.7253 99.2133 39.768 99.64 40.024C100.067 40.1947 100.365 40.3653 100.536 40.536C101.133 40.792 101.517 41.1333 101.688 41.56C101.859 41.9013 101.944 42.2427 101.944 42.584C101.944 42.9253 101.901 43.224 101.816 43.48C101.731 44.248 101.304 44.7173 100.536 44.888C99.768 44.9733 97.848 44.9733 94.776 44.888C91.1067 44.376 87.48 44.2053 83.896 44.376C80.3973 44.4613 76.3013 44.8453 71.608 45.528C69.9013 45.6133 68.3653 45.8693 67 46.296C65.72 46.6373 64.9947 46.808 64.824 46.808C64.4827 46.808 63.8853 47.4053 63.032 48.6C62.1787 49.7093 61.368 51.3733 60.6 53.592C60.2587 54.1893 59.6613 55.5547 58.808 57.688C57.9547 59.8213 57.016 62.1253 55.992 64.6C55.0533 67.0747 54.2 69.2507 53.432 71.128C52.7493 73.0053 52.3227 74.0293 52.152 74.2C53.3467 74.5413 55.2667 74.712 57.912 74.712C60.6427 74.712 63.6293 74.6267 66.872 74.456C70.2 74.2 73.2293 73.944 75.96 73.688C77.24 73.432 78.5627 73.2187 79.928 73.048C81.3787 72.792 82.3173 72.7493 82.744 72.92C83.1707 73.176 83.5547 73.688 83.896 74.456C84.2373 75.1387 84.4507 75.864 84.536 76.632C84.7067 77.4 84.664 78.04 84.408 78.552ZM110.578 114.52C108.786 116.056 106.695 116.952 104.306 117.208C102.002 117.464 99.7407 117.123 97.522 116.184C95.3033 115.16 93.4687 113.624 92.018 111.576C90.5673 109.699 89.6287 107.565 89.202 105.176C88.7753 102.701 88.7327 99.5013 89.074 95.576C89.33 92.248 90.3967 88.92 92.274 85.592C94.1513 82.1787 96.4127 79.1493 99.058 76.504C101.789 73.8587 104.477 72.024 107.122 71C108.402 70.1467 109.469 69.7627 110.322 69.848C111.261 69.848 112.669 69.9333 114.546 70.104C116.509 70.36 117.959 70.744 118.898 71.256C119.922 71.768 120.733 72.4507 121.33 73.304C122.61 74.584 123.463 75.864 123.89 77.144C124.317 78.3387 124.53 79.5333 124.53 80.728C124.189 82.6053 122.909 84.9093 120.69 87.64C118.557 90.2853 115.741 92.4613 112.242 94.168C110.365 94.7653 108.317 95.0213 106.098 94.936C103.879 94.8507 102.045 94.296 100.594 93.272C98.9727 92.5893 97.906 92.7173 97.394 93.656C96.882 94.5093 96.4127 96.6427 95.986 100.056C95.6447 103.299 95.9007 105.688 96.754 107.224C97.6073 108.675 98.7593 109.528 100.21 109.784C101.917 110.125 103.239 110.381 104.178 110.552C105.202 110.637 106.439 110.253 107.89 109.4C109.255 108.547 110.109 108.077 110.45 107.992C110.791 107.821 111.047 107.651 111.218 107.48C111.474 107.224 112.029 106.669 112.882 105.816C113.479 105.219 113.949 104.792 114.29 104.536C114.631 104.195 115.015 104.024 115.442 104.024C115.869 104.024 116.253 104.237 116.594 104.664C116.935 105.005 117.277 105.261 117.618 105.432C118.471 105.432 118.642 105.944 118.13 106.968C117.703 107.992 116.807 109.229 115.442 110.68C114.077 112.045 112.455 113.325 110.578 114.52ZM110.45 87.384C111.389 86.9573 112.37 86.36 113.394 85.592C114.418 84.7387 115.271 83.8427 115.954 82.904C116.722 81.88 117.106 81.0267 117.106 80.344C117.106 79.1493 116.551 78.168 115.442 77.4C114.333 76.5467 112.669 76.4187 110.45 77.016C109.511 77.272 108.445 77.912 107.25 78.936C106.055 79.8747 104.903 80.9413 103.794 82.136C102.77 83.3307 101.917 84.3973 101.234 85.336C100.637 86.2747 100.423 86.8293 100.594 87C100.85 87.4267 101.575 87.768 102.77 88.024C103.965 88.1947 105.287 88.2373 106.738 88.152C108.274 88.0667 109.511 87.8107 110.45 87.384ZM140.555 115.288C139.872 115.459 138.976 115.544 137.867 115.544C136.758 115.459 135.776 115.331 134.923 115.16C134.155 114.904 133.771 114.648 133.771 114.392C133.771 113.965 133.558 113.752 133.131 113.752C133.131 113.752 132.918 113.581 132.491 113.24C132.15 112.899 131.595 112.557 130.827 112.216C130.059 111.021 129.675 109.741 129.675 108.376C129.675 106.925 130.059 104.664 130.827 101.592C131.083 99.4587 131.894 96.984 133.259 94.168C134.71 91.2667 136.459 88.3227 138.507 85.336C140.555 82.3493 142.688 79.6613 144.907 77.272C147.211 74.8827 149.302 73.1333 151.179 72.024C152.374 70.8293 153.824 70.1893 155.531 70.104C157.238 70.0187 158.859 70.4027 160.395 71.256C161.248 71.6827 162.102 72.3653 162.955 73.304C163.808 74.2427 164.619 75.2667 165.387 76.376C166.155 77.4853 166.795 78.5947 167.307 79.704C167.563 80.6427 167.691 81.496 167.691 82.264C167.776 82.9467 167.776 83.8 167.691 84.824C167.691 85.848 167.563 87.384 167.307 89.432C166.88 90.968 166.496 92.8453 166.155 95.064C165.899 97.2827 165.771 99.2027 165.771 100.824C165.6 102.445 165.771 103.597 166.283 104.28C166.88 104.963 167.734 105.005 168.843 104.408C169.867 103.896 170.848 103.683 171.787 103.768C172.726 103.768 173.451 104.024 173.963 104.536C174.56 105.048 174.859 105.816 174.859 106.84C174.859 107.864 174.347 108.931 173.323 110.04C172.384 111.064 171.19 111.96 169.739 112.728C168.374 113.411 167.051 113.752 165.771 113.752C164.832 113.752 163.936 113.197 163.083 112.088C162.23 110.893 161.462 109.485 160.779 107.864C160.182 106.157 159.627 104.536 159.115 103L158.347 100.056L152.843 105.304C151.734 106.499 150.624 107.608 149.515 108.632C148.491 109.571 147.851 110.253 147.595 110.68C147.168 111.448 146.358 112.216 145.163 112.984C144.054 113.752 142.518 114.52 140.555 115.288ZM140.939 107.736C142.39 106.883 144.054 105.645 145.931 104.024C147.808 102.317 149.643 100.483 151.435 98.52C153.227 96.472 154.72 94.5947 155.915 92.888C157.366 90.9253 158.475 89.0907 159.243 87.384C160.011 85.6773 160.566 84.056 160.907 82.52C160.566 81.5813 160.011 80.6 159.243 79.576C158.475 78.4667 157.792 77.8693 157.195 77.784C155.318 77.784 153.312 78.9787 151.179 81.368C149.131 83.672 147.126 86.1893 145.163 88.92C144.822 89.3467 144.352 90.0293 143.755 90.968C143.158 91.9067 142.56 92.8027 141.963 93.656C141.451 94.424 141.11 94.936 140.939 95.192C140.683 95.5333 140.171 96.5147 139.403 98.136C138.72 99.672 138.038 101.251 137.355 102.872C136.672 104.408 136.331 105.432 136.331 105.944C136.331 106.456 136.374 107.011 136.459 107.608C136.63 108.205 137.056 108.589 137.739 108.76C138.422 108.931 139.488 108.589 140.939 107.736ZM191.162 118.104C190.223 117.933 189.242 117.464 188.218 116.696C187.279 115.843 186.426 114.904 185.658 113.88C184.975 112.771 184.506 111.789 184.25 110.936C184.25 110.765 184.122 110.552 183.866 110.296C183.695 110.04 183.61 109.912 183.61 109.912C183.269 109.656 183.055 108.547 182.97 106.584C182.97 104.536 183.098 102.275 183.354 99.8C183.61 97.3253 183.909 95.3627 184.25 93.912C184.677 92.5467 185.317 90.712 186.17 88.408C187.023 86.0187 187.749 83.8853 188.346 82.008L191.802 74.584L186.682 73.176C186.085 73.0053 185.573 72.664 185.146 72.152C184.805 71.64 184.634 71.2133 184.634 70.872C184.634 70.1893 185.018 69.3787 185.786 68.44C186.554 67.416 187.109 66.904 187.45 66.904C187.877 66.9893 188.645 67.032 189.754 67.032C190.949 67.032 192.101 66.9893 193.21 66.904C194.319 66.8187 195.002 66.7333 195.258 66.648C195.599 66.4773 195.941 66.264 196.282 66.008C196.623 65.6667 196.879 65.1973 197.05 64.6C197.477 63.6613 197.861 62.808 198.202 62.04C198.543 61.1867 199.013 60.248 199.61 59.224C200.207 58.1147 200.677 57.176 201.018 56.408C201.445 55.64 202.085 54.5733 202.938 53.208C203.365 52.6107 203.834 51.8853 204.346 51.032C204.858 50.1787 205.498 49.4533 206.266 48.856C207.034 48.1733 207.802 47.8747 208.57 47.96C209.423 47.96 210.49 48.5147 211.77 49.624C212.453 50.4773 212.837 51.1173 212.922 51.544C213.007 51.9707 212.666 52.7813 211.898 53.976C211.215 55.4267 210.405 56.8773 209.466 58.328C208.613 59.7787 207.802 61.2293 207.034 62.68C205.669 64.5573 205.413 65.624 206.266 65.88C207.119 66.136 209.509 65.9653 213.434 65.368C215.909 64.9413 217.701 65.0693 218.81 65.752C219.919 66.3493 220.559 67.3733 220.73 68.824C220.986 70.872 220.773 72.1093 220.09 72.536C219.407 72.9627 217.445 73.176 214.202 73.176C212.154 73.5173 210.405 73.7307 208.954 73.816C207.503 73.816 206.437 73.816 205.754 73.816C204.645 73.9013 203.919 73.944 203.578 73.944C203.237 73.944 202.725 74.0293 202.042 74.2C201.359 74.3707 200.847 74.6693 200.506 75.096C200.25 75.4373 199.951 75.9493 199.61 76.632C199.269 76.9733 198.757 77.8693 198.074 79.32C197.391 80.7707 196.538 82.3493 195.514 84.056C194.319 87.64 193.295 91.224 192.442 94.808C191.589 98.3067 190.906 101.72 190.394 105.048C190.053 107.181 190.095 108.675 190.522 109.528C190.949 110.296 192.058 110.765 193.85 110.936C194.789 111.021 196.282 111.021 198.33 110.936C200.463 110.765 202.127 110.509 203.322 110.168C204.261 109.741 205.242 109.315 206.266 108.888C207.29 108.376 208.229 107.864 209.082 107.352C209.85 106.925 210.618 106.499 211.386 106.072C212.154 105.56 212.538 105.304 212.538 105.304C212.965 104.621 213.434 104.408 213.946 104.664C214.458 104.92 214.885 105.56 215.226 106.584C215.226 107.608 215.013 108.675 214.586 109.784C214.159 110.893 212.581 112.216 209.85 113.752C206.01 116.141 202.469 117.592 199.226 118.104C196.069 118.531 193.381 118.531 191.162 118.104ZM232.385 112.472C230.764 111.021 229.526 109.528 228.673 107.992C227.905 106.456 227.308 104.024 226.881 100.696C226.71 99.16 226.881 97.1547 227.393 94.68C227.905 92.12 228.63 89.432 229.569 86.616C230.508 83.8 231.574 81.24 232.769 78.936C233.964 76.5467 235.158 74.7547 236.353 73.56C237.377 72.28 238.188 71.5973 238.785 71.512C239.468 71.3413 240.662 71.64 242.369 72.408C243.308 73.5173 243.777 74.712 243.777 75.992C243.777 77.272 243.265 78.7227 242.241 80.344C240.534 82.648 239.041 85.5493 237.761 89.048C236.566 92.4613 235.756 95.5333 235.329 98.264C234.476 101.165 234.092 103.128 234.177 104.152C234.262 105.176 235.03 105.859 236.481 106.2C238.102 106.541 240.022 105.944 242.241 104.408C244.46 102.787 246.636 100.568 248.769 97.752C250.902 94.8507 252.609 91.6933 253.889 88.28C254.401 87.0853 254.785 85.6773 255.041 84.056C255.382 82.4347 255.724 81.24 256.065 80.472C256.492 78.7653 257.089 77.528 257.857 76.76C258.625 75.9067 259.436 75.4373 260.289 75.352C261.142 75.1813 261.868 75.352 262.465 75.864C263.233 76.2053 263.702 76.632 263.873 77.144C264.044 77.5707 264.044 78.7653 263.873 80.728C263.873 83.8853 263.19 86.5733 261.825 88.792C260.46 91.0107 259.308 93.3573 258.369 95.832C257.601 97.624 256.449 99.6293 254.913 101.848C253.462 104.067 251.841 106.072 250.049 107.864C248.342 109.656 246.678 110.893 245.057 111.576C242.668 113.112 240.534 113.88 238.657 113.88C236.865 113.795 234.774 113.325 232.385 112.472ZM278.608 115.032C278.352 115.117 277.925 115.075 277.328 114.904C276.731 114.733 276.133 114.52 275.536 114.264C274.939 114.008 274.555 113.795 274.384 113.624C274.043 113.283 273.701 112.771 273.36 112.088C273.104 111.405 273.104 110.424 273.36 109.144C273.616 107.779 274.469 106.029 275.92 103.896C276.347 103.043 276.859 101.763 277.456 100.056C278.053 98.3493 278.651 96.5573 279.248 94.68C279.931 92.7173 280.528 90.968 281.04 89.432C281.637 87.896 282.064 86.8293 282.32 86.232C282.491 84.7813 282.405 83.7573 282.064 83.16C281.808 82.4773 281.083 82.0933 279.888 82.008C279.035 82.008 278.352 81.9227 277.84 81.752C277.413 81.5813 277.2 80.728 277.2 79.192C277.371 77.9973 277.669 77.1867 278.096 76.76C278.608 76.248 279.291 75.6933 280.144 75.096C280.997 74.6693 281.851 74.3707 282.704 74.2C283.643 74.0293 284.539 73.9867 285.392 74.072C286.245 74.1573 286.928 74.456 287.44 74.968C288.037 75.3093 288.421 76.0773 288.592 77.272C288.763 78.3813 288.848 79.5333 288.848 80.728C288.933 81.9227 289.019 82.8187 289.104 83.416C289.957 82.7333 291.109 81.7947 292.56 80.6C294.096 79.32 295.419 78.1253 296.528 77.016C297.893 76.0773 299.515 75.1387 301.392 74.2C303.269 73.176 304.635 72.664 305.488 72.664C306.427 72.664 307.365 72.92 308.304 73.432C309.243 73.8587 309.883 74.4133 310.224 75.096C311.077 76.5467 311.461 77.8267 311.376 78.936C311.376 80.0453 310.907 81.1973 309.968 82.392C309.115 83.5013 308.048 84.2693 306.768 84.696C305.573 85.1227 304.805 85.336 304.464 85.336C303.952 85.336 303.312 84.952 302.544 84.184C301.776 83.416 301.349 82.776 301.264 82.264C301.264 82.008 300.709 82.264 299.6 83.032C298.576 83.7147 297.424 84.6107 296.144 85.72C294.864 86.744 293.797 87.6827 292.944 88.536C291.493 90.328 289.957 92.76 288.336 95.832C286.715 98.904 284.795 102.616 282.576 106.968C281.552 109.101 280.827 110.936 280.4 112.472C279.973 113.923 279.376 114.776 278.608 115.032ZM339.453 114.52C337.661 116.056 335.57 116.952 333.181 117.208C330.877 117.464 328.616 117.123 326.397 116.184C324.178 115.16 322.344 113.624 320.893 111.576C319.442 109.699 318.504 107.565 318.077 105.176C317.65 102.701 317.608 99.5013 317.949 95.576C318.205 92.248 319.272 88.92 321.149 85.592C323.026 82.1787 325.288 79.1493 327.933 76.504C330.664 73.8587 333.352 72.024 335.997 71C337.277 70.1467 338.344 69.7627 339.197 69.848C340.136 69.848 341.544 69.9333 343.421 70.104C345.384 70.36 346.834 70.744 347.773 71.256C348.797 71.768 349.608 72.4507 350.205 73.304C351.485 74.584 352.338 75.864 352.765 77.144C353.192 78.3387 353.405 79.5333 353.405 80.728C353.064 82.6053 351.784 84.9093 349.565 87.64C347.432 90.2853 344.616 92.4613 341.117 94.168C339.24 94.7653 337.192 95.0213 334.973 94.936C332.754 94.8507 330.92 94.296 329.469 93.272C327.848 92.5893 326.781 92.7173 326.269 93.656C325.757 94.5093 325.288 96.6427 324.861 100.056C324.52 103.299 324.776 105.688 325.629 107.224C326.482 108.675 327.634 109.528 329.085 109.784C330.792 110.125 332.114 110.381 333.053 110.552C334.077 110.637 335.314 110.253 336.765 109.4C338.13 108.547 338.984 108.077 339.325 107.992C339.666 107.821 339.922 107.651 340.093 107.48C340.349 107.224 340.904 106.669 341.757 105.816C342.354 105.219 342.824 104.792 343.165 104.536C343.506 104.195 343.89 104.024 344.317 104.024C344.744 104.024 345.128 104.237 345.469 104.664C345.81 105.005 346.152 105.261 346.493 105.432C347.346 105.432 347.517 105.944 347.005 106.968C346.578 107.992 345.682 109.229 344.317 110.68C342.952 112.045 341.33 113.325 339.453 114.52ZM339.325 87.384C340.264 86.9573 341.245 86.36 342.269 85.592C343.293 84.7387 344.146 83.8427 344.829 82.904C345.597 81.88 345.981 81.0267 345.981 80.344C345.981 79.1493 345.426 78.168 344.317 77.4C343.208 76.5467 341.544 76.4187 339.325 77.016C338.386 77.272 337.32 77.912 336.125 78.936C334.93 79.8747 333.778 80.9413 332.669 82.136C331.645 83.3307 330.792 84.3973 330.109 85.336C329.512 86.2747 329.298 86.8293 329.469 87C329.725 87.4267 330.45 87.768 331.645 88.024C332.84 88.1947 334.162 88.2373 335.613 88.152C337.149 88.0667 338.386 87.8107 339.325 87.384ZM387.094 118.616C386.155 118.957 385.473 119.085 385.046 119C384.705 118.829 383.809 118.189 382.358 117.08C381.761 116.056 381.377 115.16 381.206 114.392C381.121 113.539 381.078 112.045 381.078 109.912C381.249 108.632 381.59 106.797 382.102 104.408C382.699 102.019 383.382 99.5013 384.15 96.856C384.918 94.2107 385.601 91.8213 386.198 89.688C386.881 87.5547 387.393 86.104 387.734 85.336C388.331 83.288 388.459 82.0507 388.118 81.624C387.777 81.112 386.753 80.7707 385.046 80.6C381.633 80.1733 378.561 81.2827 375.83 83.928C373.099 86.5733 370.369 90.0293 367.638 94.296C365.59 97.4533 364.353 100.184 363.926 102.488C363.585 104.707 363.542 106.243 363.798 107.096C364.054 107.779 364.651 108.163 365.59 108.248C366.529 108.248 367.553 108.035 368.662 107.608C369.857 107.181 370.881 106.755 371.734 106.328C372.331 105.987 373.057 105.645 373.91 105.304C374.849 104.877 375.745 104.493 376.598 104.152C377.11 104.152 377.451 104.323 377.622 104.664C377.878 104.92 378.006 105.475 378.006 106.328C378.006 106.669 378.134 106.968 378.39 107.224C378.646 107.48 378.945 107.693 379.286 107.864C379.627 108.205 379.115 108.973 377.75 110.168C376.47 111.363 374.465 112.728 371.734 114.264C369.174 114.861 367.083 115.16 365.462 115.16C363.926 115.16 362.433 114.605 360.982 113.496C358.593 112.045 357.227 109.699 356.886 106.456C356.63 103.128 357.313 99.0747 358.934 94.296C360.555 90.456 362.347 87.3413 364.31 84.952C366.273 82.4773 368.363 80.088 370.582 77.784C370.923 77.4427 371.691 76.9307 372.886 76.248C374.166 75.48 375.745 74.7973 377.622 74.2C379.755 73.5173 381.761 73.0907 383.638 72.92C385.515 72.7493 387.137 73.1333 388.502 74.072C390.038 74.4133 391.019 74.3707 391.446 73.944C391.873 73.432 392.598 71.896 393.622 69.336C395.329 65.0693 396.993 60.76 398.614 56.408C400.235 51.9707 401.985 47.4907 403.862 42.968C404.715 41.3467 405.227 40.1093 405.398 39.256C405.654 38.3173 405.953 37.6773 406.294 37.336H408.726C409.067 37.336 409.665 37.6347 410.518 38.232C411.371 38.8293 411.969 39.64 412.31 40.664C412.31 41.432 411.969 43.1387 411.286 45.784C410.603 48.344 409.494 51.416 407.958 55C406.593 58.1573 405.227 61.3573 403.862 64.6C402.582 67.7573 401.345 71.128 400.15 74.712C399.211 77.3573 398.358 79.4907 397.59 81.112C396.822 82.7333 396.31 84.1413 396.054 85.336C395.542 87.5547 394.902 89.56 394.134 91.352C393.451 93.0587 392.982 94.2533 392.726 94.936C391.617 98.1787 390.721 100.824 390.038 102.872C389.355 104.835 388.843 106.499 388.502 107.864C388.161 109.144 387.947 110.467 387.862 111.832C387.862 113.112 387.99 114.648 388.246 116.44C388.246 116.781 388.203 117.123 388.118 117.464C388.033 117.805 387.691 118.189 387.094 118.616ZM490.744 125.784C489.635 125.869 488.611 125.613 487.672 125.016C486.819 124.504 486.221 123.821 485.88 122.968C485.539 122.541 485.027 121.816 484.344 120.792C483.661 119.768 483.235 118.744 483.064 117.72C482.808 114.989 482.637 112.344 482.552 109.784C482.552 107.224 482.68 103.64 482.936 99.032C483.192 95.2773 483.661 91.6507 484.344 88.152C485.112 84.568 485.837 81.368 486.52 78.552C487.288 75.736 487.885 73.5173 488.312 71.896C488.739 70.1893 488.824 69.336 488.568 69.336C488.227 69.336 487.715 69.976 487.032 71.256C486.349 72.4507 485.581 73.944 484.728 75.736C483.875 77.528 483.021 79.32 482.168 81.112C481.315 82.8187 480.589 84.2267 479.992 85.336C478.797 87.9813 477.389 90.7973 475.768 93.784C474.232 96.6853 472.653 99.5013 471.032 102.232C469.411 104.963 468.003 107.352 466.808 109.4C466.04 110.253 465.144 111.491 464.12 113.112C463.096 114.648 461.987 116.269 460.792 117.976C459.597 119.683 458.36 121.091 457.08 122.2C455.203 123.992 453.325 124.973 451.448 125.144C449.656 125.315 448.12 124.845 446.84 123.736C446.584 123.395 446.285 122.968 445.944 122.456C445.688 122.029 445.475 121.432 445.304 120.664C445.133 119.896 445.176 119 445.432 117.976C445.347 116.781 445.347 114.947 445.432 112.472C445.603 109.912 445.859 107.139 446.2 104.152C446.541 101.08 446.883 98.136 447.224 95.32C447.651 92.504 448.035 90.1573 448.376 88.28C449.144 82.8187 450.168 77.2293 451.448 71.512C452.813 65.7947 454.051 60.0347 455.16 54.232C455.843 52.5253 456.44 50.6053 456.952 48.472C457.549 46.2533 458.147 44.2053 458.744 42.328C458.829 40.4507 459.256 39.2133 460.024 38.616C460.792 37.9333 461.645 37.72 462.584 37.976C463.608 38.1467 464.419 38.6587 465.016 39.512C465.869 40.3653 466.509 41.688 466.936 43.48C467.448 45.272 467.107 47.5333 465.912 50.264C464.205 54.4453 462.541 59.5653 460.92 65.624C459.384 71.5973 457.976 78.8507 456.696 87.384C456.355 89.432 455.971 91.864 455.544 94.68C455.117 97.496 454.733 100.227 454.392 102.872C454.051 105.517 453.795 107.736 453.624 109.528C453.539 111.32 453.581 112.259 453.752 112.344C454.435 112.515 455.373 112.003 456.568 110.808C457.763 109.528 458.829 107.864 459.768 105.816C463.267 100.013 466.723 93.9547 470.136 87.64C473.635 81.24 476.963 74.9253 480.12 68.696C481.571 66.2213 483.021 63.5333 484.472 60.632C486.008 57.6453 487.459 54.9147 488.824 52.44C490.275 49.88 491.597 47.576 492.792 45.528C493.987 43.3947 495.011 41.6453 495.864 40.28C496.717 38.9147 497.4 38.1467 497.912 37.976C499.277 38.0613 500.429 38.4027 501.368 39C502.392 39.512 503.245 40.6213 503.928 42.328C504.099 42.7547 504.056 43.48 503.8 44.504C503.544 45.528 503.245 46.424 502.904 47.192C502.819 47.7893 502.435 49.0267 501.752 50.904C501.155 52.7813 500.6 54.872 500.088 57.176C499.235 59.48 498.467 61.784 497.784 64.088C497.187 66.3067 496.76 68.1413 496.504 69.592C495.821 73.2613 494.968 77.3147 493.944 81.752C492.92 86.104 492.024 90.456 491.256 94.808C490.573 99.0747 490.189 102.915 490.104 106.328C490.019 108.717 490.019 110.595 490.104 111.96C490.275 113.325 490.531 114.392 490.872 115.16C491.043 115.843 491.555 116.269 492.408 116.44C493.347 116.611 494.115 116.312 494.712 115.544C496.419 113.411 497.869 111.491 499.064 109.784C500.344 107.992 501.539 106.2 502.648 104.408C503.757 102.531 504.909 100.44 506.104 98.136C508.237 94.2107 510.413 89.8587 512.632 85.08C514.936 80.216 517.112 75.3947 519.16 70.616C521.293 65.8373 523.128 61.656 524.664 58.072C526.285 53.464 527.565 49.7947 528.504 47.064C529.528 44.3333 530.424 42.2853 531.192 40.92C531.96 39.5547 532.771 38.616 533.624 38.104C534.051 37.7627 534.648 37.592 535.416 37.592C536.184 37.592 536.952 37.9333 537.72 38.616C538.061 38.9573 538.36 39.512 538.616 40.28C538.957 40.9627 539.085 41.816 539 42.84C538.573 44.2053 537.805 46.3813 536.696 49.368C535.672 52.3547 534.477 55.64 533.112 59.224C531.747 62.808 530.424 66.2213 529.144 69.464C527.864 72.7067 526.755 75.3093 525.816 77.272C524.877 79.064 523.981 80.6 523.128 81.88C522.275 83.16 521.848 84.1413 521.848 84.824C521.848 85.1653 521.421 86.232 520.568 88.024C519.715 89.7307 518.605 91.8213 517.24 94.296C515.96 96.7707 514.552 99.3307 513.016 101.976C511.48 104.621 510.029 107.053 508.664 109.272C507.299 111.491 506.147 113.197 505.208 114.392C503.075 117.037 500.984 119.213 498.936 120.92C496.973 122.627 495.267 123.864 493.816 124.632C492.365 125.4 491.341 125.784 490.744 125.784ZM545.365 114.136C543.573 114.477 542.421 114.605 541.909 114.52C541.482 114.349 540.8 113.837 539.861 112.984C538.496 112.301 537.344 111.448 536.405 110.424C535.552 109.4 534.912 108.333 534.485 107.224C534.144 106.029 534.016 105.048 534.101 104.28C534.357 101.293 535.082 98.0933 536.277 94.68C537.472 91.2667 538.922 87.9813 540.629 84.824C542.336 81.6667 544.17 78.9787 546.133 76.76C548.181 74.456 550.144 72.9627 552.021 72.28C553.728 71.5973 555.349 71.3413 556.885 71.512C558.421 71.6827 559.53 72.4933 560.213 73.944C561.493 76.4187 561.194 77.9973 559.317 78.68C559.061 78.68 558.762 78.808 558.421 79.064C558.08 79.2347 557.909 79.4907 557.909 79.832C558.25 80.0027 559.189 80.0453 560.725 79.96C562.261 79.7893 563.797 79.5333 565.333 79.192C566.954 78.7653 568.021 78.3387 568.533 77.912C569.045 77.656 569.429 77.528 569.685 77.528C569.941 77.528 570.581 77.6133 571.605 77.784C573.056 78.2107 573.781 78.7227 573.781 79.32C573.781 79.6613 573.909 80.0027 574.165 80.344C574.421 80.6 574.72 80.728 575.061 80.728C575.658 80.8133 575.573 81.1973 574.805 81.88C574.122 82.5627 572.928 83.5013 571.221 84.696C569.6 85.72 568.576 86.4027 568.149 86.744C567.808 87 567.765 87.5973 568.021 88.536C568.704 90.1573 568.746 92.0347 568.149 94.168C567.552 96.3013 566.485 98.4773 564.949 100.696C563.413 102.915 561.536 105.005 559.317 106.968C557.184 108.845 554.88 110.467 552.405 111.832C550.016 113.112 547.669 113.88 545.365 114.136ZM543.189 108.504C543.53 108.504 544.128 108.333 544.981 107.992C545.834 107.565 546.517 107.224 547.029 106.968C547.37 106.627 547.797 106.243 548.309 105.816C548.906 105.304 549.376 105.005 549.717 104.92C550.058 104.92 550.485 104.792 550.997 104.536C551.509 104.195 552.234 103.555 553.173 102.616C554.112 101.592 555.349 100.099 556.885 98.136C558.592 96.2587 559.914 94.552 560.853 93.016C561.792 91.3947 562.048 89.9013 561.621 88.536C561.536 88.1947 561.28 87.9813 560.853 87.896C560.512 87.8107 560.042 87.5973 559.445 87.256C558.592 87.256 557.781 87.0427 557.013 86.616C556.33 86.104 555.52 85.464 554.581 84.696L552.533 82.136L550.357 84.312C548.992 85.6773 547.541 87.7253 546.005 90.456C544.554 93.1013 543.317 95.832 542.293 98.648C541.269 101.379 540.672 103.555 540.501 105.176C540.416 106.456 540.629 107.309 541.141 107.736C541.653 108.163 542.336 108.419 543.189 108.504ZM579.482 114.52C578.714 113.923 578.159 113.325 577.818 112.728C577.562 112.131 577.562 110.979 577.818 109.272C578.074 106.883 578.415 104.792 578.842 103C579.269 101.123 579.781 98.9893 580.378 96.6C580.549 95.576 581.018 93.8267 581.786 91.352C582.639 88.8773 583.663 86.1893 584.858 83.288C586.053 80.3867 587.247 77.656 588.442 75.096C589.637 72.4507 590.661 70.488 591.514 69.208C592.197 68.696 593.007 68.4827 593.946 68.568C594.97 68.6533 595.823 69.0373 596.506 69.72C597.445 70.488 597.573 71.8533 596.89 73.816C596.293 75.6933 595.013 78.68 593.05 82.776C592.026 85.08 591.258 86.8293 590.746 88.024C590.234 89.1333 590.021 89.816 590.106 90.072C590.191 90.2427 590.575 90.1147 591.258 89.688C591.77 88.7493 592.709 87.6827 594.074 86.488C595.439 85.208 596.89 83.9707 598.426 82.776C599.962 81.5813 601.413 80.5147 602.778 79.576C604.143 78.6373 605.082 78.04 605.594 77.784C606.277 77.3573 607.045 77.016 607.898 76.76C608.837 76.4187 609.477 76.1627 609.818 75.992C611.781 75.0533 613.786 74.712 615.834 74.968C617.882 75.224 619.162 75.992 619.674 77.272C619.759 77.9547 620.015 78.4667 620.442 78.808C620.954 79.1493 621.21 79.32 621.21 79.32C621.551 79.32 621.722 79.448 621.722 79.704C621.807 79.96 621.85 80.088 621.85 80.088C621.85 80.6853 621.381 81.0693 620.442 81.24C619.589 81.3253 618.479 81.4107 617.114 81.496C616.005 81.5813 615.023 81.7947 614.17 82.136C613.317 82.4773 612.293 82.904 611.098 83.416C607.855 85.2933 604.741 87.128 601.754 88.92C598.853 90.712 596.037 93.1013 593.306 96.088C592.709 96.7707 592.111 97.5813 591.514 98.52C590.917 99.4587 590.277 100.483 589.594 101.592C589.167 102.019 588.741 102.957 588.314 104.408C587.887 105.859 587.503 107.267 587.162 108.632C586.906 109.912 586.778 110.68 586.778 110.936C586.778 110.936 586.65 111.363 586.394 112.216C586.138 112.984 585.711 113.752 585.114 114.52C584.09 115.885 583.237 116.568 582.554 116.568C581.871 116.568 580.847 115.885 579.482 114.52ZM624.071 116.184C623.218 115.587 622.578 115.032 622.151 114.52C621.724 114.008 621.554 113.283 621.639 112.344C621.81 111.064 622.066 109.741 622.407 108.376C622.748 106.925 623.175 105.517 623.687 104.152C623.943 102.616 624.242 101.08 624.583 99.544C625.01 98.008 625.692 96.5573 626.631 95.192C627.74 92.0347 628.892 88.92 630.087 85.848C631.282 82.6907 632.306 79.4053 633.159 75.992C634.439 72.92 635.591 70.1893 636.615 67.8C637.724 65.4107 639.047 62.3387 640.583 58.584C641.436 56.6213 642.162 54.4453 642.759 52.056C643.442 49.5813 644.466 47.4053 645.831 45.528C646.428 44.76 646.855 44.12 647.111 43.608C647.452 43.0107 647.794 42.456 648.135 41.944C648.306 41.432 648.86 41.2613 649.799 41.432C650.823 41.6027 651.548 41.9867 651.975 42.584C652.402 42.4987 652.914 43.0533 653.511 44.248C654.108 45.4427 654.322 46.3813 654.151 47.064C654.151 48.0027 653.81 49.0267 653.127 50.136C652.786 50.4773 652.444 50.9893 652.103 51.672C651.762 52.2693 651.25 53.08 650.567 54.104C650.226 55.2133 649.884 56.3227 649.543 57.432C649.202 58.5413 648.818 59.5653 648.391 60.504C647.964 61.4427 647.495 62.3813 646.983 63.32C646.471 64.2587 646.13 65.0267 645.959 65.624C645.191 67.5867 644.338 69.5067 643.399 71.384C642.546 73.176 641.778 75.096 641.095 77.144C640.412 79.1067 639.687 81.1973 638.919 83.416C638.236 85.5493 637.298 87.5973 636.103 89.56C635.506 90.4133 635.036 91.5653 634.695 93.016C634.354 94.4667 634.012 95.8747 633.671 97.24C633.074 98.776 632.519 100.184 632.007 101.464C631.58 102.744 631.367 103.555 631.367 103.896C630.77 105.773 630.3 107.651 629.959 109.528C629.618 111.32 629.063 112.899 628.295 114.264C628.21 115.544 627.826 116.397 627.143 116.824C626.546 117.251 625.522 117.037 624.071 116.184ZM654.663 118.232C653.298 118.061 652.274 117.805 651.591 117.464C650.908 117.037 649.628 116.141 647.751 114.776C646.727 113.752 645.319 112.173 643.527 110.04C641.735 107.907 639.943 105.645 638.151 103.256C636.359 100.781 634.866 98.6907 633.671 96.984L638.919 89.944C640.028 91.3093 640.924 92.5893 641.607 93.784C642.29 94.9787 642.844 95.7893 643.271 96.216C645.234 99.1173 646.77 101.464 647.879 103.256C649.074 105.048 650.14 106.499 651.079 107.608C652.018 108.717 652.999 109.699 654.023 110.552C655.132 111.405 656.498 112.301 658.119 113.24C658.375 113.411 658.631 113.667 658.887 114.008C659.143 114.349 659.228 114.861 659.143 115.544C658.802 116.483 658.418 117.08 657.991 117.336C657.65 117.507 656.54 117.805 654.663 118.232ZM633.287 95.576C632.775 94.1253 632.946 92.6747 633.799 91.224C634.738 89.688 635.762 88.6213 636.871 88.024C637.212 87.4267 637.554 87.0427 637.895 86.872C638.322 86.616 638.578 86.3173 638.663 85.976C638.834 85.6347 639.26 85.1653 639.943 84.568C640.711 83.9707 641.394 83.416 641.991 82.904C643.356 82.0507 644.892 81.0267 646.599 79.832C648.391 78.552 650.098 77.272 651.719 75.992C653.34 74.712 654.706 73.6027 655.815 72.664C657.01 71.7253 657.735 71.128 657.991 70.872C658.247 70.5307 658.588 70.3173 659.015 70.232C659.527 70.0613 660.167 70.1467 660.935 70.488C661.959 70.744 662.642 71.1707 662.983 71.768C663.324 72.28 663.495 73.304 663.495 74.84C663.751 75.7787 663.367 76.8027 662.343 77.912C661.404 78.936 659.954 80.088 657.991 81.368C657.308 81.7947 656.37 82.4347 655.175 83.288C654.066 84.1413 653.084 84.952 652.231 85.72C651.634 86.0613 650.738 86.6587 649.543 87.512C648.434 88.28 647.452 89.048 646.599 89.816C645.916 90.2427 645.02 91.0107 643.911 92.12C642.802 93.144 641.692 93.912 640.583 94.424C637.852 96.984 636.06 98.3493 635.207 98.52C634.354 98.6907 633.714 97.7093 633.287 95.576Z" fill="black"/>
<path fill-rule="evenodd" clip-rule="evenodd" d="M398.081 204.145C318.232 205.317 238.343 209.967 158.842 218.28C121.044 222.232 77.1499 221.738 40.491 235.214C38.6644 235.892 39.0123 237.927 39.0518 238.13C39.1309 238.547 39.4631 239.932 40.918 240C41.0762 240.009 42.1911 239.816 42.6181 239.748C53.4433 238.004 64.2291 235.97 75.0623 234.323C112.465 228.617 149.977 224.305 187.546 220.527C237.41 215.509 287.701 212.835 337.7 210.742C365.068 209.599 393.092 211.12 420.546 208.756C430.628 208.688 440.71 208.679 450.792 208.718C492.939 208.902 535.038 210.859 577.114 213.542C590.643 214.404 600.962 215.335 614.207 215.964C619.237 216.206 627.215 216.371 632.766 216.478C633.581 216.497 635.66 216.516 636.522 216.526C636.609 216.545 636.696 216.545 636.791 216.545C637.123 216.545 637.281 216.516 637.313 216.516C639.195 216.177 639.021 213.997 638.974 213.668C638.966 213.6 638.681 211.76 637.06 211.692C636.673 211.672 633.897 211.653 632.829 211.634C627.31 211.527 619.363 211.363 614.358 211.13C601.137 210.5 590.825 209.57 577.319 208.708C535.18 206.024 493.018 204.058 450.808 203.874C445.652 203.854 440.489 203.845 435.333 203.854C435.159 203.302 434.772 202.682 433.918 202.411C433.119 202.159 427.402 201.936 425.196 201.713C408.867 200.066 409.349 200.144 391.384 198.797C364.174 196.753 360.031 196.288 331.73 195.426C280.324 193.856 228.894 193.982 177.48 194.137C152.097 194.225 124.919 196.327 99.1483 192.403C107.641 191.183 116.165 190.291 124.674 189.274C153.726 185.806 182.801 183.655 211.972 182.144C281.945 178.52 352.028 177.077 421.978 182.018C407.088 182.192 392.206 182.599 377.316 182.861C316.706 183.946 255.51 183.132 195.026 188.761C193.943 188.867 193.128 190.03 193.207 191.357C193.286 192.694 194.243 193.692 195.327 193.595C255.731 187.966 316.84 188.79 377.372 187.705C399.86 187.307 422.341 186.591 444.83 186.804C452.548 186.881 460.265 187.23 467.983 187.346C469.509 187.375 473.439 187.743 474.001 187.588C475.242 187.249 475.511 186.125 475.59 185.573C475.629 185.244 475.756 183.345 473.858 182.667C460.906 178.036 437.002 178.249 424.413 177.339C353.602 172.204 282.648 173.638 211.806 177.3C182.564 178.821 153.417 180.981 124.286 184.459C114.109 185.67 103.909 186.717 93.7713 188.325C92.1345 188.586 88.4576 188.964 86.6784 189.361C85.9351 189.526 85.3974 189.758 85.1601 189.923C84.235 190.563 84.0689 191.493 84.0689 192.122C84.061 192.607 84.2271 194.312 86.1644 194.777C115.683 201.859 147.803 199.078 177.487 198.981C228.87 198.826 280.26 198.7 331.635 200.27C359.865 201.132 363.992 201.587 391.146 203.632C393.827 203.825 396.097 204 398.081 204.145Z" fill="black"/>
</svg>
