<svg width="677" height="245" viewBox="0 0 677 245" fill="none" xmlns="http://www.w3.org/2000/svg">
<path d="M256.52 128.632C255.837 128.632 255.069 128.077 254.216 126.968C253.363 125.859 252.979 124.792 253.064 123.768C253.149 122.403 253.533 120.44 254.216 117.88C254.899 115.32 255.667 112.717 256.52 110.072C257.373 107.427 258.141 105.336 258.824 103.8C259.165 102.435 259.464 101.24 259.72 100.216C260.061 99.1067 260.275 98.3813 260.36 98.04C260.616 97.6987 261 96.8027 261.512 95.352C262.109 93.9013 262.579 92.4933 262.92 91.128C263.091 90.4453 263.432 89.1653 263.944 87.288C264.541 85.3253 265.224 83.064 265.992 80.504C266.845 77.944 267.656 75.4267 268.424 72.952C269.277 70.4773 270.003 68.3013 270.6 66.424C271.197 64.5467 271.581 63.3093 271.752 62.712C272.435 61.688 272.947 60.7067 273.288 59.768C273.629 58.8293 273.843 58.1893 273.928 57.848C274.44 57.5067 274.739 57.08 274.824 56.568C274.909 55.9707 274.952 55.5013 274.952 55.16C274.952 54.7333 275.08 54.392 275.336 54.136C275.677 53.88 275.848 53.5813 275.848 53.24C276.189 52.984 276.403 52.6 276.488 52.088C276.573 51.4907 276.829 50.9787 277.256 50.552L277.896 48.376L285.448 48.248C285.277 49.272 285.021 50.552 284.68 52.088C284.339 53.5387 283.528 55.5013 282.248 57.976C281.821 59.6827 281.309 61.2187 280.712 62.584C280.2 63.9493 279.987 64.8453 280.072 65.272C279.901 65.4427 279.517 66.296 278.92 67.832C278.408 69.368 277.768 71.2453 277 73.464C276.317 75.6827 275.592 77.9013 274.824 80.12C274.141 82.3387 273.501 84.3013 272.904 86.008C272.392 87.6293 272.051 88.6533 271.88 89.08C271.197 90.4453 270.429 92.4507 269.576 95.096C268.723 97.7413 267.443 101.325 265.736 105.848C265.053 107.213 264.2 109.261 263.176 111.992C262.237 114.723 261.469 117.197 260.872 119.416C259.933 122.744 259.251 125.048 258.824 126.328C258.483 127.693 258.184 128.419 257.928 128.504C257.672 128.675 257.203 128.717 256.52 128.632ZM257.544 52.344C255.155 52.4293 253.363 52.3013 252.168 51.96C251.059 51.6187 250.675 50.7653 251.016 49.4C251.272 48.376 251.827 47.608 252.68 47.096C253.533 46.584 254.771 46.2 256.392 45.944C257.331 45.7733 258.525 45.56 259.976 45.304C261.512 45.048 262.963 44.792 264.328 44.536C267.144 44.1947 269.448 43.896 271.24 43.64C273.117 43.384 275.037 43.1707 277 43C278.963 42.8293 281.437 42.6587 284.424 42.488C286.899 42.3173 288.989 42.1893 290.696 42.104C292.488 41.9333 293.384 41.848 293.384 41.848C293.64 41.848 294.536 41.9333 296.072 42.104C297.608 42.2747 299.272 42.488 301.064 42.744C302.856 43 304.179 43.2987 305.032 43.64C306.995 44.0667 308.403 44.664 309.256 45.432C310.195 46.2 310.835 47.3093 311.176 48.76C311.432 49.784 311.432 50.424 311.176 50.68C310.92 50.8507 310.451 51.1067 309.768 51.448C307.805 52.0453 306.355 52.344 305.416 52.344C304.477 52.344 303.411 52.1307 302.216 51.704C301.789 51.2773 301.277 50.8933 300.68 50.552C300.168 50.2107 299.229 49.9547 297.864 49.784C296.584 49.528 294.536 49.3147 291.72 49.144C289.331 49.4 287.24 49.528 285.448 49.528C283.656 49.528 282.76 49.7413 282.76 50.168L275.208 50.552L268.936 51.192C268.083 51.2773 266.888 51.4053 265.352 51.576C263.816 51.6613 262.323 51.7893 260.872 51.96C259.421 52.0453 258.312 52.1733 257.544 52.344ZM297.757 121.08C296.648 121.08 295.752 120.867 295.069 120.44C294.472 120.013 293.704 119.416 292.765 118.648C291.144 116.941 289.992 115.32 289.309 113.784C288.626 112.163 288.413 110.627 288.669 109.176C288.925 108.493 289.01 107.853 288.925 107.256C288.925 106.573 288.925 106.232 288.925 106.232C288.498 105.805 288.37 105.549 288.541 105.464C288.712 105.293 288.882 105.037 289.053 104.696C289.565 104.696 289.736 104.227 289.565 103.288C289.394 102.605 289.736 101.112 290.589 98.808C291.442 96.504 292.509 94.328 293.789 92.28C294.301 91.4267 295.069 90.3173 296.093 88.952C297.117 87.5013 298.226 86.0933 299.421 84.728C300.701 83.2773 301.853 82.1253 302.877 81.272C305.01 79.48 306.888 78.1573 308.509 77.304C310.13 76.4507 311.88 75.8107 313.757 75.384C315.634 74.9573 316.914 74.744 317.597 74.744C318.365 74.744 319.389 75.4267 320.669 76.792C322.632 77.6453 324.04 78.6693 324.893 79.864C325.832 81.0587 326.429 82.808 326.685 85.112C326.941 87.672 326.728 90.616 326.045 93.944C325.448 97.1867 323.442 101.24 320.029 106.104C317.896 109.176 315.933 111.48 314.141 113.016C312.349 114.467 310.216 115.917 307.741 117.368C305.949 118.563 304.328 119.459 302.877 120.056C301.426 120.568 299.72 120.909 297.757 121.08ZM310.045 107.512C312.093 105.208 313.714 103.032 314.909 100.984C316.189 98.936 317.384 96.3333 318.493 93.176C318.834 92.2373 319.048 91.0853 319.133 89.72C319.218 88.2693 319.176 86.9467 319.005 85.752C318.92 84.472 318.621 83.7467 318.109 83.576C317.085 82.9787 315.848 82.808 314.397 83.064C312.946 83.2347 311.368 84.0453 309.661 85.496C307.016 87.7147 304.712 90.488 302.749 93.816C300.786 97.0587 298.866 100.771 296.989 104.952C295.709 108.024 295.41 110.499 296.093 112.376C296.861 114.168 298.44 114.808 300.829 114.296C303.304 113.699 306.376 111.437 310.045 107.512ZM347.49 118.136C345.698 118.477 344.546 118.605 344.034 118.52C343.607 118.349 342.925 117.837 341.986 116.984C340.621 116.301 339.469 115.448 338.53 114.424C337.677 113.4 337.037 112.333 336.61 111.224C336.269 110.029 336.141 109.048 336.226 108.28C336.482 105.293 337.207 102.093 338.402 98.68C339.597 95.2667 341.047 91.9813 342.754 88.824C344.461 85.6667 346.295 82.9787 348.258 80.76C350.306 78.456 352.269 76.9627 354.146 76.28C355.853 75.5973 357.474 75.3413 359.01 75.512C360.546 75.6827 361.655 76.4933 362.338 77.944C363.618 80.4187 363.319 81.9973 361.442 82.68C361.186 82.68 360.887 82.808 360.546 83.064C360.205 83.2347 360.034 83.4907 360.034 83.832C360.375 84.0027 361.314 84.0453 362.85 83.96C364.386 83.7893 365.922 83.5333 367.458 83.192C369.079 82.7653 370.146 82.3387 370.658 81.912C371.17 81.656 371.554 81.528 371.81 81.528C372.066 81.528 372.706 81.6133 373.73 81.784C375.181 82.2107 375.906 82.7227 375.906 83.32C375.906 83.6613 376.034 84.0027 376.29 84.344C376.546 84.6 376.845 84.728 377.186 84.728C377.783 84.8133 377.698 85.1973 376.93 85.88C376.247 86.5627 375.053 87.5013 373.346 88.696C371.725 89.72 370.701 90.4027 370.274 90.744C369.933 91 369.89 91.5973 370.146 92.536C370.829 94.1573 370.871 96.0347 370.274 98.168C369.677 100.301 368.61 102.477 367.074 104.696C365.538 106.915 363.661 109.005 361.442 110.968C359.309 112.845 357.005 114.467 354.53 115.832C352.141 117.112 349.794 117.88 347.49 118.136ZM345.314 112.504C345.655 112.504 346.253 112.333 347.106 111.992C347.959 111.565 348.642 111.224 349.154 110.968C349.495 110.627 349.922 110.243 350.434 109.816C351.031 109.304 351.501 109.005 351.842 108.92C352.183 108.92 352.61 108.792 353.122 108.536C353.634 108.195 354.359 107.555 355.298 106.616C356.237 105.592 357.474 104.099 359.01 102.136C360.717 100.259 362.039 98.552 362.978 97.016C363.917 95.3947 364.173 93.9013 363.746 92.536C363.661 92.1947 363.405 91.9813 362.978 91.896C362.637 91.8107 362.167 91.5973 361.57 91.256C360.717 91.256 359.906 91.0427 359.138 90.616C358.455 90.104 357.645 89.464 356.706 88.696L354.658 86.136L352.482 88.312C351.117 89.6773 349.666 91.7253 348.13 94.456C346.679 97.1013 345.442 99.832 344.418 102.648C343.394 105.379 342.797 107.555 342.626 109.176C342.541 110.456 342.754 111.309 343.266 111.736C343.778 112.163 344.461 112.419 345.314 112.504ZM383.015 123C381.394 123.427 380.071 123.085 379.047 121.976C378.108 120.867 377.554 119.16 377.383 116.856C377.212 114.552 377.468 111.821 378.151 108.664C378.578 107.64 378.919 106.659 379.175 105.72C379.431 104.696 379.559 103.885 379.559 103.288C379.73 102.435 380.071 101.197 380.583 99.576C381.095 97.8693 381.65 96.12 382.247 94.328C382.844 92.536 383.399 90.9573 383.911 89.592C384.508 88.1413 384.892 87.2453 385.063 86.904C385.404 86.904 385.703 86.6053 385.959 86.008C386.215 85.4107 386.343 84.8133 386.343 84.216C386.343 83.5333 386.471 82.7653 386.727 81.912C387.068 81.0587 387.41 80.4613 387.751 80.12C387.751 79.6933 387.836 79.224 388.007 78.712C388.263 78.1147 388.391 77.6453 388.391 77.304C388.391 76.9627 388.476 76.6213 388.647 76.28C388.903 75.9387 389.031 75.5973 389.031 75.256C389.628 74.1467 390.396 72.3973 391.335 70.008C392.359 67.5333 393.426 64.8027 394.535 61.816C395.73 58.8293 396.839 55.8853 397.863 52.984C398.887 50.0827 399.698 47.6507 400.295 45.688C400.978 43.64 401.319 42.4027 401.319 41.976C401.319 41.2933 401.49 40.7813 401.831 40.44C402.172 40.0987 402.684 39.928 403.367 39.928C403.623 39.672 403.922 39.5013 404.263 39.416C404.69 39.3307 405.074 39.288 405.415 39.288C405.415 39.288 405.586 39.4587 405.927 39.8C406.268 40.1413 406.78 40.6533 407.463 41.336C408.146 41.9333 408.53 42.616 408.615 43.384C408.786 44.152 408.871 45.048 408.871 46.072C408.871 47.1813 408.743 48.1627 408.487 49.016C408.231 49.8693 407.719 51.1067 406.951 52.728C406.183 54.3493 404.988 56.8667 403.367 60.28C402.684 61.9867 401.959 63.608 401.191 65.144C400.423 66.5947 400.039 67.4907 400.039 67.832C400.039 68.1733 399.868 68.6853 399.527 69.368C399.271 70.0507 398.972 70.904 398.631 71.928C398.29 72.6107 397.82 73.6347 397.223 75C396.626 76.28 395.986 77.688 395.303 79.224C394.706 80.6747 394.194 81.9547 393.767 83.064C393.34 84.088 393.127 84.6853 393.127 84.856C393.127 85.1973 393.084 85.5387 392.999 85.88C392.999 86.2213 392.828 86.5627 392.487 86.904C392.146 86.904 391.932 87.16 391.847 87.672C391.847 88.0987 391.847 88.312 391.847 88.312C391.847 89.1653 391.164 91.4267 389.799 95.096C388.434 99.7893 387.154 104.099 385.959 108.024C384.85 111.949 384.295 115.107 384.295 117.496C384.295 119.544 384.252 120.909 384.167 121.592C384.082 122.189 383.698 122.659 383.015 123ZM412.96 121.848C410.827 122.019 408.779 121.891 406.816 121.464C404.939 121.037 403.317 120.312 401.952 119.288C400.672 118.179 399.776 116.856 399.264 115.32C398.667 114.125 398.368 113.315 398.368 112.888C398.368 112.376 398.667 111.949 399.264 111.608C399.947 111.608 400.544 111.821 401.056 112.248C401.653 112.589 402.421 112.973 403.36 113.4C404.64 114.509 406.176 115.107 407.968 115.192C409.845 115.277 411.552 114.979 413.088 114.296C414.624 113.613 415.477 112.76 415.648 111.736C415.648 111.395 415.52 110.797 415.264 109.944C415.008 109.091 414.709 108.195 414.368 107.256C412.064 104.013 410.357 100.813 409.248 97.656C408.224 94.4133 407.712 91.768 407.712 89.72C407.712 88.184 408.181 86.5627 409.12 84.856C410.059 83.064 411.339 81.5707 412.96 80.376C414.496 78.7547 416.203 77.304 418.08 76.024C419.957 74.744 421.835 73.6347 423.712 72.696C425.675 71.7573 427.424 71.0747 428.96 70.648C429.899 70.648 431.136 70.776 432.672 71.032C434.208 71.288 435.275 71.5867 435.872 71.928C436.811 72.2693 437.707 73.208 438.56 74.744C439.413 76.1947 439.84 77.6453 439.84 79.096C439.84 79.6933 439.669 80.4613 439.328 81.4C438.987 82.3387 438.432 83.448 437.664 84.728C437.323 85.6667 436.939 86.5627 436.512 87.416C436.085 88.184 435.872 88.7387 435.872 89.08C435.445 90.0187 434.848 90.488 434.08 90.488C433.397 90.4027 432.672 90.0187 431.904 89.336C431.221 88.568 430.667 87.672 430.24 86.648C429.899 85.368 429.771 84.344 429.856 83.576C429.941 82.7227 430.283 81.8267 430.88 80.888C431.819 79.9493 432.288 79.3093 432.288 78.968C432.288 78.6267 431.819 78.456 430.88 78.456C430.283 78.456 429.173 78.84 427.552 79.608C426.016 80.2907 424.352 81.2293 422.56 82.424C420.853 83.5333 419.36 84.728 418.08 86.008C416.459 87.544 415.477 88.6533 415.136 89.336C414.88 90.0187 414.752 91.0853 414.752 92.536C414.752 93.7307 415.008 95.224 415.52 97.016C416.117 98.808 416.715 100.003 417.312 100.6C417.312 100.6 417.611 101.197 418.208 102.392C418.805 103.501 419.531 104.696 420.384 105.976C422.859 111.437 423.499 115.363 422.304 117.752C421.109 120.141 417.995 121.507 412.96 121.848Z" fill="black"/>
<path fill-rule="evenodd" clip-rule="evenodd" d="M398.081 204.145C318.232 205.317 238.343 209.967 158.842 218.28C121.044 222.232 77.1499 221.738 40.491 235.214C38.6644 235.892 39.0123 237.927 39.0518 238.13C39.1309 238.547 39.4631 239.932 40.918 240C41.0762 240.009 42.1911 239.816 42.6181 239.748C53.4433 238.004 64.2291 235.97 75.0623 234.323C112.465 228.617 149.977 224.305 187.546 220.527C237.41 215.509 287.701 212.835 337.7 210.742C365.068 209.599 393.092 211.12 420.546 208.756C430.628 208.688 440.71 208.679 450.792 208.718C492.939 208.902 535.038 210.859 577.114 213.542C590.643 214.404 600.962 215.335 614.207 215.964C619.237 216.206 627.215 216.371 632.766 216.478C633.581 216.497 635.66 216.516 636.522 216.526C636.609 216.545 636.696 216.545 636.791 216.545C637.123 216.545 637.281 216.516 637.313 216.516C639.195 216.177 639.021 213.997 638.974 213.668C638.966 213.6 638.681 211.76 637.06 211.692C636.673 211.672 633.897 211.653 632.829 211.634C627.31 211.527 619.363 211.363 614.358 211.13C601.137 210.5 590.825 209.57 577.319 208.708C535.18 206.024 493.018 204.058 450.808 203.874C445.652 203.854 440.489 203.845 435.333 203.854C435.159 203.302 434.772 202.682 433.918 202.411C433.119 202.159 427.402 201.936 425.196 201.713C408.867 200.066 409.349 200.144 391.384 198.797C364.174 196.753 360.031 196.288 331.73 195.426C280.324 193.856 228.894 193.982 177.48 194.137C152.097 194.225 124.919 196.327 99.1483 192.403C107.641 191.183 116.165 190.291 124.674 189.274C153.726 185.806 182.801 183.655 211.972 182.144C281.945 178.52 352.028 177.077 421.978 182.018C407.088 182.192 392.206 182.599 377.316 182.861C316.706 183.946 255.51 183.132 195.026 188.761C193.943 188.867 193.128 190.03 193.207 191.357C193.286 192.694 194.243 193.692 195.327 193.595C255.731 187.966 316.84 188.79 377.372 187.705C399.861 187.307 422.341 186.591 444.83 186.804C452.548 186.881 460.265 187.23 467.983 187.346C469.509 187.375 473.439 187.743 474.001 187.588C475.242 187.249 475.511 186.125 475.59 185.573C475.629 185.244 475.756 183.345 473.858 182.667C460.906 178.036 437.002 178.249 424.413 177.339C353.602 172.204 282.648 173.638 211.806 177.3C182.564 178.821 153.417 180.981 124.286 184.459C114.109 185.67 103.909 186.717 93.7713 188.325C92.1345 188.586 88.4576 188.964 86.6784 189.361C85.9351 189.526 85.3974 189.758 85.1601 189.923C84.235 190.563 84.0689 191.493 84.0689 192.122C84.061 192.607 84.2271 194.312 86.1644 194.777C115.683 201.859 147.803 199.078 177.487 198.981C228.87 198.826 280.26 198.7 331.635 200.27C359.865 201.132 363.992 201.587 391.146 203.632C393.827 203.825 396.096 204 398.081 204.145Z" fill="black"/>
</svg>
