<svg width="677" height="245" viewBox="0 0 677 245" fill="none" xmlns="http://www.w3.org/2000/svg">
<path d="M176.08 129.144C175.056 129.144 174.203 128.589 173.52 127.48C173.008 126.968 172.667 126.243 172.496 125.304C172.411 124.451 172.709 122.872 173.392 120.568C174.075 118.179 175.227 114.552 176.848 109.688C177.701 106.445 178.384 104.099 178.896 102.648C179.408 101.112 179.664 100.003 179.664 99.32C179.664 98.3813 179.749 97.6133 179.92 97.016C180.176 96.3333 180.304 95.6933 180.304 95.096C180.816 95.096 181.328 94.6267 181.84 93.688C182.352 92.7493 182.779 91.4693 183.12 89.848C183.461 88.3973 183.76 87.2453 184.016 86.392C184.357 85.4533 184.528 84.8133 184.528 84.472C184.955 83.7893 185.381 82.7227 185.808 81.272C186.32 79.8213 187.088 78.072 188.112 76.024C188.795 73.464 189.563 70.8187 190.416 68.088C191.269 65.272 192.123 62.6693 192.976 60.28C193.915 57.8053 194.683 55.8853 195.28 54.52C196.219 51.8747 196.944 50.04 197.456 49.016C197.968 47.9067 197.968 47.1813 197.456 46.84C196.859 46.4133 196.731 45.688 197.072 44.664C197.413 43.64 198.352 42.488 199.888 41.208C200.827 40.0987 201.637 39.3307 202.32 38.904C203.003 38.392 203.856 38.136 204.88 38.136C205.989 38.136 207.568 38.2213 209.616 38.392C211.152 38.4773 212.773 38.52 214.48 38.52C216.272 38.52 217.381 38.52 217.808 38.52C218.576 38.8613 219.515 39.2453 220.624 39.672C221.733 40.0133 222.715 40.3547 223.568 40.696C224.507 41.0373 224.976 41.336 224.976 41.592C224.976 42.104 225.147 42.4453 225.488 42.616C225.915 42.7013 226.341 42.7867 226.768 42.872C227.365 42.872 228.176 43.3413 229.2 44.28C230.224 45.1333 231.291 46.2427 232.4 47.608C233.509 48.888 234.363 50.2533 234.96 51.704C235.643 53.1547 236.155 54.52 236.496 55.8C236.923 57.08 236.923 58.9147 236.496 61.304C236.411 62.584 236.197 63.864 235.856 65.144C235.6 66.424 235.301 67.2773 234.96 67.704C234.448 68.0453 233.979 68.472 233.552 68.984C233.125 69.496 232.912 69.9653 232.912 70.392C232.912 70.7333 232.613 71.416 232.016 72.44C231.419 73.3787 230.651 74.488 229.712 75.768C228.773 77.048 227.749 78.328 226.64 79.608C225.531 80.888 224.464 81.9973 223.44 82.936C222.331 84.3013 221.008 85.5813 219.472 86.776C218.021 87.9707 216.699 88.952 215.504 89.72C213.285 90.744 210.811 91.768 208.08 92.792C205.435 93.816 202.875 94.6693 200.4 95.352C198.011 96.0347 196.005 96.3333 194.384 96.248C191.909 96.5893 190.288 96.9307 189.52 97.272C188.837 97.528 188.325 98.2533 187.984 99.448C187.557 100.557 187.131 101.709 186.704 102.904C186.363 104.013 186.192 104.781 186.192 105.208C186.021 105.549 185.595 106.616 184.912 108.408C184.315 110.115 183.632 112.12 182.864 114.424C182.181 116.728 181.499 118.989 180.816 121.208C180.133 123.427 179.621 125.261 179.28 126.712C178.939 127.907 178.512 128.589 178 128.76C177.488 129.016 176.848 129.144 176.08 129.144ZM191.952 89.464C192.293 89.8053 193.616 89.848 195.92 89.592C198.224 89.336 200.699 88.696 203.344 87.672C205.051 87.0747 206.757 86.3493 208.464 85.496C210.256 84.6427 211.963 83.704 213.584 82.68C214.437 82.0827 215.717 81.016 217.424 79.48C219.131 77.944 220.837 76.1093 222.544 73.976C222.8 73.5493 223.227 72.7387 223.824 71.544C224.507 70.264 225.104 69.0693 225.616 67.96C226.384 66.7653 227.152 65.016 227.92 62.712C228.688 60.3227 228.859 58.36 228.432 56.824C228.005 54.6053 226.896 52.5573 225.104 50.68C223.312 48.7173 221.179 47.3947 218.704 46.712C216.827 46.3707 215.248 46.2 213.968 46.2C212.773 46.2 211.451 46.328 210 46.584C208.635 47.0107 207.611 47.608 206.928 48.376C206.331 49.144 205.52 50.7653 204.496 53.24C203.899 54.4347 203.045 56.2693 201.936 58.744C200.827 61.1333 199.888 63.3947 199.12 65.528C197.584 71.16 196.048 75.8107 194.512 79.48C193.061 83.064 192.165 85.3253 191.824 86.264C191.909 87.2027 191.867 87.8853 191.696 88.312C191.525 88.6533 191.611 89.0373 191.952 89.464ZM236.833 118.904C236.15 118.221 235.638 117.368 235.297 116.344C235.041 115.32 234.956 114.296 235.041 113.272C235.126 112.248 235.34 111.395 235.681 110.712C235.681 110.029 235.766 109.517 235.937 109.176C236.193 108.749 236.278 108.365 236.193 108.024C236.108 107.683 236.193 107.085 236.449 106.232C236.705 105.379 236.961 104.568 237.217 103.8C237.814 102.435 238.454 100.813 239.137 98.936C239.82 96.9733 240.46 95.0533 241.057 93.176C241.654 91.2987 242.166 89.6773 242.593 88.312C243.02 86.9467 243.276 86.0933 243.361 85.752C243.361 84.728 244.044 84.1733 245.409 84.088C246.433 83.7467 247.201 83.7467 247.713 84.088C248.225 84.344 248.908 85.1547 249.761 86.52C250.444 87.2027 250.7 88.2267 250.529 89.592C250.358 90.9573 249.804 92.664 248.865 94.712C248.524 95.3947 248.097 96.376 247.585 97.656C247.158 98.936 246.86 100.088 246.689 101.112C246.348 101.795 245.921 102.776 245.409 104.056C244.982 105.251 244.598 106.403 244.257 107.512C244.086 107.939 243.916 108.579 243.745 109.432C243.574 110.2 243.361 111.053 243.105 111.992C242.849 112.845 242.508 113.613 242.081 114.296C241.313 117.795 240.588 119.843 239.905 120.44C239.308 121.037 238.284 120.525 236.833 118.904ZM249.249 66.936C248.822 66.5093 248.438 65.912 248.097 65.144C247.756 64.2907 247.542 63.5227 247.457 62.84C247.372 62.072 247.457 61.688 247.713 61.688C248.396 61.6027 249.206 60.8773 250.145 59.512C251.084 58.1467 251.468 56.952 251.297 55.928C251.297 55.5867 251.425 55.288 251.681 55.032C251.937 54.6907 252.236 54.4773 252.577 54.392C253.601 53.7093 254.582 53.624 255.521 54.136C256.545 54.5627 257.484 55.4587 258.337 56.824C259.105 58.4453 259.318 59.8107 258.977 60.92C258.636 61.944 257.697 63.3947 256.161 65.272C254.881 66.9787 253.686 67.9173 252.577 68.088C251.553 68.2587 250.444 67.8747 249.249 66.936ZM304.612 117.112C302.905 117.112 301.497 116.771 300.388 116.088C299.279 115.32 298.34 114.083 297.572 112.376C297.231 111.181 296.932 109.859 296.676 108.408C296.505 106.872 296.42 105.464 296.42 104.184C296.42 102.819 296.548 101.923 296.804 101.496C297.145 101.155 297.273 100.557 297.188 99.704C297.188 98.7653 297.188 97.784 297.188 96.76C297.103 95.0533 296.676 94.1147 295.908 93.944C295.225 93.688 294.201 93.944 292.836 94.712C291.3 95.6507 289.295 96.9307 286.82 98.552C284.345 100.088 281.743 101.795 279.012 103.672C276.367 105.549 273.849 107.512 271.46 109.56C269.583 111.608 268.431 113.187 268.004 114.296C267.663 115.32 267.151 115.832 266.468 115.832C265.785 116.173 265.188 116.216 264.676 115.96C264.249 115.619 263.609 115.107 262.756 114.424C262.159 113.741 261.561 113.101 260.964 112.504C260.367 111.821 259.983 111.309 259.812 110.968C259.812 110.541 259.94 109.645 260.196 108.28C260.452 106.915 260.751 105.549 261.092 104.184C261.519 102.819 261.817 101.923 261.988 101.496C262.415 101.496 262.756 101.069 263.012 100.216C263.353 99.3627 263.865 98.424 264.548 97.4C264.719 96.376 265.145 95.0107 265.828 93.304C266.596 91.512 267.279 89.9333 267.876 88.568C269.071 86.52 269.881 84.8133 270.308 83.448C270.82 82.0827 271.161 80.376 271.332 78.328C271.247 77.9867 271.332 77.688 271.588 77.432C271.844 77.0907 272.143 76.92 272.484 76.92C273.167 76.2373 273.977 76.0667 274.916 76.408C275.855 76.664 276.708 77.304 277.476 78.328C279.012 80.376 279.609 82.5093 279.268 84.728C279.012 86.8613 277.647 89.9333 275.172 93.944C274.575 95.3093 274.105 96.376 273.764 97.144C273.508 97.8267 273.38 98.3813 273.38 98.808C273.38 98.808 273.807 98.5093 274.66 97.912C275.599 97.3147 276.623 96.632 277.732 95.864C278.927 95.0107 279.865 94.3707 280.548 93.944C280.975 93.5173 281.956 92.7493 283.492 91.64C285.028 90.5307 286.649 89.464 288.356 88.44C290.148 87.3307 291.471 86.6907 292.324 86.52C293.007 86.1787 293.732 85.88 294.5 85.624C295.268 85.2827 295.823 85.112 296.164 85.112C296.847 85.112 297.7 85.496 298.724 86.264C299.833 86.9467 300.857 87.8 301.796 88.824C302.735 89.7627 303.289 90.5733 303.46 91.256C303.46 91.5973 303.46 91.9387 303.46 92.28C303.545 92.6213 303.631 92.9627 303.716 93.304C304.057 94.4133 304.228 95.9067 304.228 97.784C304.313 99.6613 304.271 101.368 304.1 102.904C303.929 104.44 303.631 105.336 303.204 105.592C303.204 105.592 303.204 105.72 303.204 105.976C303.289 106.147 303.503 106.232 303.844 106.232C303.844 106.573 303.844 106.787 303.844 106.872C303.417 106.872 303.247 107.256 303.332 108.024C303.417 108.707 303.673 109.475 304.1 110.328C304.612 111.181 305.124 111.864 305.636 112.376C306.66 113.4 307.087 114.381 306.916 115.32C306.745 116.173 305.977 116.771 304.612 117.112ZM327.933 147.064C326.994 147.149 325.544 146.936 323.581 146.424C321.704 145.912 320.296 145.443 319.357 145.016C318.248 144.163 317.138 143.011 316.029 141.56C314.92 140.109 314.024 138.616 313.341 137.08C312.744 135.629 312.488 134.52 312.573 133.752C312.658 133.069 313.298 132.941 314.493 133.368C315.773 133.795 316.626 134.349 317.053 135.032C317.821 135.971 318.717 136.867 319.741 137.72C320.765 138.573 321.789 139.213 322.813 139.64C323.837 140.152 324.648 140.365 325.245 140.28C327.378 139.939 329.128 138.872 330.493 137.08C331.944 135.373 333.224 133.197 334.333 130.552C335.016 128.675 335.528 127.096 335.869 125.816C336.296 124.621 336.68 123.256 337.021 121.72C337.448 120.184 337.96 118.051 338.557 115.32C339.325 112.248 339.837 110.072 340.093 108.792C340.434 107.427 340.605 106.531 340.605 106.104C340.605 105.677 340.477 105.379 340.221 105.208C340.221 105.208 339.666 105.507 338.557 106.104C337.448 106.701 336.21 107.341 334.845 108.024C333.565 108.707 332.584 109.261 331.901 109.688C329.512 110.456 327.165 110.925 324.861 111.096C322.557 111.267 320.765 111.139 319.485 110.712C318.888 110.456 318.248 109.859 317.565 108.92C316.968 107.981 316.456 106.957 316.029 105.848C315.688 104.653 315.56 103.629 315.645 102.776C315.73 102.093 316.114 101.069 316.797 99.704C317.48 98.3387 318.248 96.888 319.101 95.352C320.04 93.816 320.85 92.536 321.533 91.512C322.301 90.4027 322.77 89.848 322.941 89.848C323.282 89.848 323.453 89.72 323.453 89.464C323.538 89.208 323.581 88.9093 323.581 88.568C323.666 88.2267 324.306 87.5013 325.501 86.392C326.781 85.1973 328.488 83.7467 330.621 82.04C333.608 79.3093 336.296 77.2187 338.685 75.768C341.074 74.3173 343.293 73.5067 345.341 73.336C345.938 73.4213 346.493 73.464 347.005 73.464C347.602 73.464 347.901 73.464 347.901 73.464C347.901 73.464 348.157 73.6347 348.669 73.976C349.266 74.232 350.034 74.5733 350.973 75C352.253 75.512 353.405 76.408 354.429 77.688C355.453 78.8827 356.264 80.2907 356.861 81.912C357.544 83.448 357.928 84.984 358.013 86.52C357.928 88.3973 357.501 90.232 356.733 92.024C356.05 93.816 355.368 94.6693 354.685 94.584C354.002 94.4987 353.149 94.7973 352.125 95.48C351.186 96.1627 350.717 96.6747 350.717 97.016C350.717 97.3573 350.589 97.784 350.333 98.296C350.162 98.808 349.608 99.6187 348.669 100.728C348.584 101.155 348.328 102.307 347.901 104.184C347.56 105.976 347.133 108.024 346.621 110.328C346.109 112.632 345.64 114.723 345.213 116.6C344.872 118.392 344.658 119.544 344.573 120.056C344.488 120.397 344.274 121.165 343.933 122.36C343.677 123.469 343.293 124.749 342.781 126.2C342.354 127.651 341.885 129.016 341.373 130.296C341.032 132.771 340.562 134.605 339.965 135.8C339.453 137.08 338.6 138.445 337.405 139.896C336.125 142.029 334.589 143.693 332.797 144.888C331.005 146.168 329.384 146.893 327.933 147.064ZM322.685 104.056C322.856 104.909 324.008 105.208 326.141 104.952C328.274 104.611 330.408 103.885 332.541 102.776C334.418 101.837 336.125 101.069 337.661 100.472C339.197 99.8747 340.264 99.0213 340.861 97.912C341.373 97.0587 341.8 96.2053 342.141 95.352C342.482 94.4987 342.909 93.2613 343.421 91.64C343.506 91.2987 343.72 90.9147 344.061 90.488C344.488 89.976 344.872 89.6773 345.213 89.592C345.554 89.5067 345.896 89.5067 346.237 89.592C346.664 89.6773 347.176 89.848 347.773 90.104C348.2 89.9333 348.498 89.5067 348.669 88.824C348.925 88.1413 348.968 87.3733 348.797 86.52C348.712 85.9227 348.285 85.112 347.517 84.088C346.749 83.064 345.768 82.2533 344.573 81.656C343.293 80.9733 341.8 81.4 340.093 82.936C338.386 84.472 336.296 86.3493 333.821 88.568C331.858 90.36 329.981 92.2373 328.189 94.2C326.397 96.1627 324.946 97.9973 323.837 99.704C322.813 101.411 322.429 102.861 322.685 104.056ZM465.233 125.816C465.233 125.816 465.02 125.517 464.593 124.92C464.166 124.408 463.526 123.597 462.673 122.488C462.246 121.293 461.82 119.416 461.393 116.856C461.052 114.211 461.009 110.84 461.265 106.744C461.094 105.464 461.094 103.416 461.265 100.6C461.521 97.784 461.862 94.6693 462.289 91.256C462.801 87.7573 463.313 84.3867 463.825 81.144C464.422 77.9013 464.977 75.2987 465.489 73.336C465.83 67.96 466.172 64.2907 466.513 62.328C466.854 60.28 467.025 59.0427 467.025 58.616C466.94 58.2747 466.172 59.0853 464.721 61.048C463.27 62.9253 461.649 65.4427 459.857 68.6C458.748 70.392 457.724 71.9707 456.785 73.336C455.932 74.616 455.334 75.4693 454.993 75.896C454.225 77.0053 453.5 78.3707 452.817 79.992C452.22 81.528 450.94 84.1733 448.977 87.928C445.564 93.2187 442.876 97.1867 440.913 99.832C439.036 102.392 437.5 104.056 436.305 104.824C435.11 105.507 433.916 105.72 432.721 105.464C430.246 104.867 428.54 103.843 427.601 102.392C426.748 100.941 426.236 98.3813 426.065 94.712C425.98 92.408 425.937 90.4027 425.937 88.696C425.937 86.9893 425.937 85.8373 425.937 85.24C426.278 84.472 426.364 83.6187 426.193 82.68C426.108 81.7413 426.108 81.0587 426.193 80.632C426.108 80.2907 426.236 79.6507 426.577 78.712C427.004 77.688 427.26 76.5787 427.345 75.384C427.601 73.7627 427.814 71.8 427.985 69.496C428.241 67.1067 428.369 64.9733 428.369 63.096C428.454 61.2187 428.369 60.1947 428.113 60.024C428.284 60.3653 428.113 60.8773 427.601 61.56C427.174 62.1573 426.833 62.6693 426.577 63.096C424.956 65.2293 423.078 68.5573 420.945 73.08C418.812 77.5173 416.081 83.1493 412.753 89.976C412.497 91.8533 411.772 94.2853 410.577 97.272C409.382 100.259 408.188 102.904 406.993 105.208C406.481 106.573 405.884 108.109 405.201 109.816C404.518 111.437 403.836 112.973 403.153 114.424C402.47 115.875 401.83 117.027 401.233 117.88C400.124 120.952 399.142 122.787 398.289 123.384C397.521 124.067 396.241 123.811 394.449 122.616C393.254 121.507 392.444 120.397 392.017 119.288C391.59 118.179 391.846 116.813 392.785 115.192C393.638 114.253 394.492 112.888 395.345 111.096C396.284 109.304 397.052 107.597 397.649 105.976C398.332 104.355 398.63 103.416 398.545 103.16C398.46 102.819 398.588 102.349 398.929 101.752C399.356 101.069 400.209 99.7893 401.489 97.912C401.404 97.5707 401.745 96.376 402.513 94.328C403.366 92.1947 404.518 89.6773 405.969 86.776C406.225 86.3493 406.481 85.8373 406.737 85.24C406.993 84.6427 407.078 84.1307 406.993 83.704C407.249 83.3627 407.462 82.8933 407.633 82.296C407.889 81.6987 408.273 81.2293 408.785 80.888C408.956 80.12 409.297 79.1813 409.809 78.072C410.321 76.9627 410.62 76.024 410.705 75.256C411.046 74.488 411.345 73.8053 411.601 73.208C411.942 72.6107 412.326 72.056 412.753 71.544C413.094 71.288 413.393 70.8613 413.649 70.264C413.905 69.6667 414.204 69.1973 414.545 68.856C414.886 67.832 415.441 66.6373 416.209 65.272C416.977 63.9067 417.916 62.3707 419.025 60.664C420.134 58.9573 421.286 57.1653 422.481 55.288C423.078 54.3493 423.548 53.496 423.889 52.728C424.23 51.8747 424.828 50.808 425.681 49.528C425.681 49.528 425.98 49.0587 426.577 48.12C427.26 47.1813 427.942 46.072 428.625 44.792C429.052 44.1947 429.564 43.4267 430.161 42.488C430.758 41.464 431.356 40.568 431.953 39.8C432.55 39.032 432.977 38.648 433.233 38.648C433.745 38.5627 434.556 38.904 435.665 39.672C436.774 40.44 437.798 41.336 438.737 42.36C439.676 43.384 440.145 44.2373 440.145 44.92C440.145 45.2613 440.06 46.072 439.889 47.352C439.718 48.632 439.462 50.1253 439.121 51.832C438.78 53.5387 438.353 55.16 437.841 56.696C437.756 58.488 437.5 60.5787 437.073 62.968C436.732 65.3573 436.348 67.7893 435.921 70.264C435.494 72.7387 435.196 75.128 435.025 77.432C434.769 80.3333 434.3 82.8933 433.617 85.112C433.02 87.3307 432.721 88.44 432.721 88.44C432.892 88.7813 433.02 89.208 433.105 89.72C433.276 90.1467 433.361 90.744 433.361 91.512V94.328L438.225 89.08C439.42 87.2027 440.529 85.496 441.553 83.96C442.662 82.3387 443.644 80.8453 444.497 79.48C444.497 79.0533 444.668 78.584 445.009 78.072C445.436 77.56 445.777 76.8773 446.033 76.024C446.545 75.6827 447.014 75.1707 447.441 74.488C447.953 73.8053 448.166 73.08 448.081 72.312C448.934 71.032 450.129 69.3253 451.665 67.192C453.201 64.9733 454.865 62.6267 456.657 60.152C458.534 57.592 460.369 55.1173 462.161 52.728C463.953 50.3387 465.532 48.2907 466.897 46.584C468.348 44.792 469.372 43.64 469.969 43.128C471.164 42.1893 472.444 41.6773 473.809 41.592C475.26 41.5067 476.668 42.1893 478.033 43.64C479.142 44.8347 479.782 45.9867 479.953 47.096C480.124 48.12 479.825 49.6133 479.057 51.576C478.033 54.9893 477.009 58.1893 475.985 61.176C474.961 64.1627 474.492 66.2533 474.577 67.448C474.236 68.216 473.98 69.1547 473.809 70.264C473.638 71.3733 473.51 72.2693 473.425 72.952C473.084 73.72 472.828 74.4453 472.657 75.128C472.572 75.8107 472.316 76.3227 471.889 76.664C471.889 77.0907 471.974 77.816 472.145 78.84C472.401 79.7787 472.444 80.76 472.273 81.784C471.078 89.464 470.268 95.864 469.841 100.984C469.414 106.019 469.372 109.859 469.713 112.504C470.14 115.064 470.908 116.515 472.017 116.856C472.358 116.771 472.529 116.941 472.529 117.368C472.614 117.795 472.486 118.819 472.145 120.44C472.23 120.952 472.188 121.549 472.017 122.232C471.932 122.829 471.804 123.384 471.633 123.896C471.462 124.408 471.292 124.792 471.121 125.048C470.353 125.901 469.713 126.371 469.201 126.456C468.774 126.541 467.452 126.328 465.233 125.816ZM497.838 123.384C494.083 123.384 491.011 121.976 488.622 119.16C486.233 116.259 485.081 112.675 485.166 108.408C485.337 105.336 485.934 102.051 486.958 98.552C488.067 94.968 489.518 91.5547 491.31 88.312C493.102 84.984 495.065 82.0827 497.198 79.608C499.331 77.1333 501.55 75.384 503.854 74.36C504.707 73.9333 505.603 73.592 506.542 73.336C507.566 73.08 508.59 72.952 509.614 72.952C510.553 72.952 511.534 73.1227 512.558 73.464C513.582 73.72 514.435 74.0187 515.118 74.36C516.569 74.9573 517.678 75.6827 518.446 76.536C519.214 77.3893 519.897 78.712 520.494 80.504C520.75 82.1253 520.878 83.2773 520.878 83.96C520.878 84.6427 520.665 85.6667 520.238 87.032C519.214 90.104 517.891 92.7493 516.27 94.968C514.649 97.1867 512.473 99.064 509.742 100.6C509.059 101.027 508.249 101.368 507.31 101.624C506.457 101.795 505.561 101.88 504.622 101.88C502.915 101.88 501.251 101.581 499.63 100.984C498.094 100.301 496.857 99.32 495.918 98.04L495.022 97.016L494.638 98.04C493.785 100.344 493.102 102.477 492.59 104.44C492.163 106.403 491.95 108.195 491.95 109.816C491.95 110.84 492.035 111.821 492.206 112.76C492.462 113.699 492.803 114.509 493.23 115.192C493.571 115.704 494.126 116.088 494.894 116.344C495.747 116.515 496.643 116.6 497.582 116.6C498.179 116.6 498.777 116.6 499.374 116.6C500.057 116.515 500.697 116.344 501.294 116.088C502.745 115.576 503.897 115.021 504.75 114.424C505.689 113.827 506.627 113.187 507.566 112.504L508.078 112.248H507.95C508.974 111.736 509.87 111.224 510.638 110.712C511.491 110.2 511.918 109.944 511.918 109.944C512.259 109.944 512.601 109.731 512.942 109.304C513.625 108.963 514.478 109.091 515.502 109.688C516.611 110.285 517.166 111.053 517.166 111.992C517.081 112.419 516.697 113.101 516.014 114.04C515.331 114.893 514.563 115.704 513.71 116.472C512.942 117.24 512.302 117.667 511.79 117.752C511.705 117.837 511.406 118.008 510.894 118.264C510.382 118.435 510.041 118.605 509.87 118.776H509.998C509.23 119.8 508.462 120.312 507.694 120.312H506.67C506.329 120.909 505.219 121.592 503.342 122.36C501.465 123.043 499.63 123.384 497.838 123.384ZM503.598 95.224C505.134 95.224 506.457 94.7973 507.566 93.944C508.761 93.0053 509.785 91.9813 510.638 90.872C512.345 88.568 513.326 86.3493 513.582 84.216C513.923 81.9973 513.667 80.4613 512.814 79.608C512.302 79.352 511.833 79.224 511.406 79.224C511.065 79.1387 510.339 79.2667 509.23 79.608C508.462 79.7787 507.395 80.4187 506.03 81.528C504.665 82.6373 503.299 83.8747 501.934 85.24C500.654 86.6053 499.673 87.7573 498.99 88.696L497.326 91.384C498.009 91.128 498.649 91 499.246 91C499.929 90.9147 500.313 90.9573 500.398 91.128C500.398 91.896 500.526 92.6213 500.782 93.304C501.123 93.9013 501.507 94.3707 501.934 94.712C502.446 95.0533 503.001 95.224 503.598 95.224Z" fill="black"/>
<path fill-rule="evenodd" clip-rule="evenodd" d="M398.081 204.145C318.232 205.317 238.343 209.967 158.842 218.28C121.044 222.232 77.1499 221.738 40.491 235.214C38.6644 235.892 39.0123 237.927 39.0518 238.13C39.1309 238.547 39.4631 239.932 40.918 240C41.0762 240.009 42.1911 239.816 42.6181 239.748C53.4433 238.004 64.2291 235.97 75.0623 234.323C112.465 228.617 149.977 224.305 187.546 220.527C237.41 215.509 287.701 212.835 337.7 210.742C365.068 209.599 393.092 211.12 420.546 208.756C430.628 208.688 440.71 208.679 450.792 208.718C492.939 208.902 535.038 210.859 577.114 213.542C590.643 214.404 600.962 215.335 614.207 215.964C619.237 216.206 627.215 216.371 632.766 216.478C633.581 216.497 635.66 216.516 636.522 216.526C636.609 216.545 636.696 216.545 636.791 216.545C637.123 216.545 637.281 216.516 637.313 216.516C639.195 216.177 639.021 213.997 638.974 213.668C638.966 213.6 638.681 211.76 637.06 211.692C636.673 211.672 633.897 211.653 632.829 211.634C627.31 211.527 619.363 211.363 614.358 211.13C601.137 210.5 590.825 209.57 577.319 208.708C535.18 206.024 493.018 204.058 450.808 203.874C445.652 203.854 440.489 203.845 435.333 203.854C435.159 203.302 434.772 202.682 433.918 202.411C433.119 202.159 427.402 201.936 425.196 201.713C408.867 200.066 409.349 200.144 391.384 198.797C364.174 196.753 360.031 196.288 331.73 195.426C280.324 193.856 228.894 193.982 177.48 194.137C152.097 194.225 124.919 196.327 99.1483 192.403C107.641 191.183 116.165 190.291 124.674 189.274C153.726 185.806 182.801 183.655 211.972 182.144C281.945 178.52 352.028 177.077 421.978 182.018C407.088 182.192 392.206 182.599 377.316 182.861C316.706 183.946 255.51 183.132 195.026 188.761C193.943 188.867 193.128 190.03 193.207 191.357C193.286 192.694 194.243 193.692 195.327 193.595C255.731 187.966 316.84 188.79 377.372 187.705C399.86 187.307 422.341 186.591 444.83 186.804C452.548 186.881 460.265 187.23 467.983 187.346C469.509 187.375 473.439 187.743 474.001 187.588C475.242 187.249 475.511 186.125 475.59 185.573C475.629 185.244 475.756 183.345 473.858 182.667C460.906 178.036 437.002 178.249 424.413 177.339C353.602 172.204 282.648 173.638 211.806 177.3C182.564 178.821 153.417 180.981 124.286 184.459C114.109 185.67 103.909 186.717 93.7713 188.325C92.1345 188.586 88.4576 188.964 86.6784 189.361C85.9351 189.526 85.3974 189.758 85.1601 189.923C84.235 190.563 84.0689 191.493 84.0689 192.122C84.061 192.607 84.2271 194.312 86.1644 194.777C115.683 201.859 147.803 199.078 177.487 198.981C228.87 198.826 280.26 198.7 331.635 200.27C359.865 201.132 363.992 201.587 391.146 203.632C393.827 203.825 396.097 204 398.081 204.145Z" fill="black"/>
</svg>
