<svg width="677" height="245" viewBox="0 0 677 245" fill="none" xmlns="http://www.w3.org/2000/svg">
<path d="M261.512 129.4C259.976 128.973 258.739 128.589 257.8 128.248C256.861 127.992 256.392 127.864 256.392 127.864C256.563 127.437 256.477 127.053 256.136 126.712C255.88 126.371 255.283 126.157 254.344 126.072C253.064 125.304 251.869 124.323 250.76 123.128C249.736 122.019 248.883 120.909 248.2 119.8C247.517 118.691 247.005 117.752 246.664 116.984C246.067 115.704 245.768 114.936 245.768 114.68C245.853 114.339 246.365 113.955 247.304 113.528C248.243 112.845 248.925 112.632 249.352 112.888C249.864 113.144 250.461 113.997 251.144 115.448C252.253 117.411 254.131 118.904 256.776 119.928C259.507 120.952 262.536 121.421 265.864 121.336C269.277 121.165 272.52 120.397 275.592 119.032C278.749 117.752 280.712 116.429 281.48 115.064C282.333 113.613 282.035 111.779 280.584 109.56C280.328 108.877 280.029 108.323 279.688 107.896C279.347 107.469 278.792 106.915 278.024 106.232C277.341 105.549 276.189 104.44 274.568 102.904C273.288 102.307 272.093 101.752 270.984 101.24C269.96 100.728 268.851 100.173 267.656 99.576C266.291 98.8933 264.627 97.912 262.664 96.632C260.787 95.2667 258.995 93.7733 257.288 92.152C255.581 90.5307 254.344 89.0373 253.576 87.672C252.211 86.392 251.187 84.6427 250.504 82.424C249.821 80.12 249.565 77.688 249.736 75.128C249.907 72.568 250.547 70.264 251.656 68.216C252.168 67.0213 253.021 65.5707 254.216 63.864C255.496 62.072 256.904 60.28 258.44 58.488C259.976 56.696 261.469 55.0747 262.92 53.624C264.371 52.1733 265.565 51.1493 266.504 50.552C267.187 49.8693 267.912 49.1867 268.68 48.504C269.448 47.736 269.832 47.352 269.832 47.352C269.917 46.9253 270.045 46.712 270.216 46.712C270.472 46.712 270.6 46.712 270.6 46.712C271.027 46.456 271.965 46.0293 273.416 45.432C274.867 44.8347 276.445 43.7253 278.152 42.104C283.869 39.3733 288.52 37.368 292.104 36.088C295.688 34.808 298.632 34.168 300.936 34.168C303.069 34.2533 304.989 34.7653 306.696 35.704C308.488 36.5573 309.939 37.7093 311.048 39.16C312.243 40.6107 312.968 42.36 313.224 44.408C313.821 46.456 313.651 48.8453 312.712 51.576C311.773 54.2213 310.365 56.7387 308.488 59.128C306.696 61.432 304.733 63.1813 302.6 64.376C300.211 65.4 298.589 65.8693 297.736 65.784C296.968 65.6133 296.627 64.7173 296.712 63.096C296.712 62.4133 296.925 61.6027 297.352 60.664C297.864 59.7253 299.187 58.0613 301.32 55.672C304.051 51.6613 305.715 48.4613 306.312 46.072C306.909 43.6827 306.355 42.36 304.648 42.104C304.136 41.9333 303.197 41.9333 301.832 42.104C300.552 42.2747 299.101 42.5307 297.48 42.872C295.944 43.128 294.621 43.4267 293.512 43.768C292.403 44.024 291.848 44.2373 291.848 44.408C291.848 44.408 291.848 44.536 291.848 44.792C291.848 45.048 291.677 45.1333 291.336 45.048C291.165 45.048 290.44 45.3893 289.16 46.072C287.88 46.7547 286.344 47.6507 284.552 48.76C282.76 49.8693 280.968 50.9787 279.176 52.088C277.384 53.1973 275.848 54.1787 274.568 55.032C273.373 55.8 272.733 56.2693 272.648 56.44C272.477 57.3787 271.496 58.232 269.704 59C267.997 60.024 266.419 61.5173 264.968 63.48C263.603 65.4427 262.067 67.8747 260.36 70.776C258.909 72.7387 257.885 74.872 257.288 77.176C256.691 79.3947 256.691 81.1867 257.288 82.552C257.715 83.9173 259.037 85.6667 261.256 87.8C263.475 89.9333 266.248 91.9813 269.576 93.944C272.477 95.5653 275.08 97.1867 277.384 98.808C279.688 100.344 281.565 101.837 283.016 103.288C284.552 104.739 285.576 106.019 286.088 107.128C287.112 108.579 287.837 110.072 288.264 111.608C288.776 113.059 289.032 114.467 289.032 115.832C289.117 117.197 288.989 118.435 288.648 119.544C288.051 120.909 286.984 122.317 285.448 123.768C283.997 125.219 282.76 125.901 281.736 125.816C280.797 126.072 280.072 126.371 279.56 126.712C279.133 127.053 278.621 127.352 278.024 127.608C277.427 127.949 276.147 128.291 274.184 128.632C272.307 128.973 270.216 129.187 267.912 129.272C265.608 129.443 263.475 129.485 261.512 129.4ZM306.836 122.36C306.153 122.104 305.428 121.592 304.66 120.824C303.892 119.971 303.252 118.989 302.74 117.88C302.228 116.771 301.972 115.747 301.972 114.808C302.399 113.869 302.953 112.248 303.636 109.944C304.319 107.555 305.172 104.824 306.196 101.752C306.879 100.813 307.391 99.704 307.732 98.424C308.159 97.144 308.543 95.992 308.884 94.968C309.567 93.6027 310.377 91.8533 311.316 89.72C312.255 87.5013 313.151 85.2827 314.004 83.064C314.943 80.76 315.753 78.84 316.436 77.304C317.545 75 318.484 72.9093 319.252 71.032C320.105 69.0693 320.916 67.1067 321.684 65.144C322.537 63.1813 323.433 61.048 324.372 58.744C325.396 56.3547 326.42 53.9227 327.444 51.448C328.553 48.9733 329.492 46.7547 330.26 44.792C331.113 42.744 331.625 41.2933 331.796 40.44C331.796 39.7573 331.924 39.2453 332.18 38.904C332.521 38.5627 332.863 38.392 333.204 38.392C333.545 38.0507 333.887 37.88 334.228 37.88C334.569 37.7947 334.911 37.752 335.252 37.752C335.593 37.752 336.233 38.392 337.172 39.672C338.196 40.952 338.708 42.104 338.708 43.128C338.708 44.4933 338.025 47.0533 336.66 50.808C335.38 54.5627 333.545 58.8293 331.156 63.608C328.255 69.9227 325.908 75.128 324.116 79.224C322.324 83.2347 321.087 86.264 320.404 88.312C319.721 90.2747 319.465 91.384 319.636 91.64C319.636 91.64 320.233 91.384 321.428 90.872C322.623 90.2747 323.903 89.464 325.268 88.44C326.207 87.928 327.231 87.288 328.34 86.52C329.449 85.752 330.516 85.0267 331.54 84.344C332.564 83.576 333.417 83.1067 334.1 82.936C335.124 82.2533 336.191 81.6133 337.3 81.016C338.409 80.3333 339.135 79.8213 339.476 79.48C340.927 78.7973 341.993 78.584 342.676 78.84C343.444 79.096 344.212 79.736 344.98 80.76C345.919 81.8693 346.089 82.8507 345.492 83.704C344.895 84.472 343.487 85.5387 341.268 86.904C339.476 88.0133 337.3 89.336 334.74 90.872C332.265 92.408 330.047 93.7733 328.084 94.968C326.207 96.1627 325.14 96.888 324.884 97.144C324.884 97.144 325.225 97.784 325.908 99.064C326.591 100.344 327.273 101.496 327.956 102.52C328.639 103.885 329.364 105.165 330.132 106.36C330.985 107.469 331.412 108.237 331.412 108.664C332.351 111.309 333.759 113.229 335.636 114.424C337.513 115.619 339.476 115.747 341.524 114.808C343.231 114.125 344.468 113.912 345.236 114.168C346.089 114.424 346.687 115.064 347.028 116.088C347.369 116.771 347.455 117.283 347.284 117.624C347.199 117.88 346.644 118.52 345.62 119.544C343.999 121.165 342.335 122.189 340.628 122.616C339.007 123.043 337.513 122.915 336.148 122.232C334.868 122.317 333.289 121.507 331.412 119.8C329.535 118.008 326.847 114.851 323.348 110.328C323.348 109.987 323.177 109.517 322.836 108.92C322.58 108.237 322.281 107.597 321.94 107C321.599 106.317 321.172 105.592 320.66 104.824C320.148 103.971 319.892 103.544 319.892 103.544C319.892 103.203 319.764 102.819 319.508 102.392C319.252 101.965 318.911 101.453 318.484 100.856C317.119 100.429 316.137 100.685 315.54 101.624C314.943 102.563 314.303 103.544 313.62 104.568C313.193 105.677 312.639 107.256 311.956 109.304C311.359 111.267 310.847 113.187 310.42 115.064C310.079 116.941 309.993 118.221 310.164 118.904C310.164 120.269 309.951 121.208 309.524 121.72C309.097 122.147 308.201 122.36 306.836 122.36ZM354.708 118.904C354.025 118.221 353.513 117.368 353.172 116.344C352.916 115.32 352.831 114.296 352.916 113.272C353.001 112.248 353.215 111.395 353.556 110.712C353.556 110.029 353.641 109.517 353.812 109.176C354.068 108.749 354.153 108.365 354.068 108.024C353.983 107.683 354.068 107.085 354.324 106.232C354.58 105.379 354.836 104.568 355.092 103.8C355.689 102.435 356.329 100.813 357.012 98.936C357.695 96.9733 358.335 95.0533 358.932 93.176C359.529 91.2987 360.041 89.6773 360.468 88.312C360.895 86.9467 361.151 86.0933 361.236 85.752C361.236 84.728 361.919 84.1733 363.284 84.088C364.308 83.7467 365.076 83.7467 365.588 84.088C366.1 84.344 366.783 85.1547 367.636 86.52C368.319 87.2027 368.575 88.2267 368.404 89.592C368.233 90.9573 367.679 92.664 366.74 94.712C366.399 95.3947 365.972 96.376 365.46 97.656C365.033 98.936 364.735 100.088 364.564 101.112C364.223 101.795 363.796 102.776 363.284 104.056C362.857 105.251 362.473 106.403 362.132 107.512C361.961 107.939 361.791 108.579 361.62 109.432C361.449 110.2 361.236 111.053 360.98 111.992C360.724 112.845 360.383 113.613 359.956 114.296C359.188 117.795 358.463 119.843 357.78 120.44C357.183 121.037 356.159 120.525 354.708 118.904ZM367.124 66.936C366.697 66.5093 366.313 65.912 365.972 65.144C365.631 64.2907 365.417 63.5227 365.332 62.84C365.247 62.072 365.332 61.688 365.588 61.688C366.271 61.6027 367.081 60.8773 368.02 59.512C368.959 58.1467 369.343 56.952 369.172 55.928C369.172 55.5867 369.3 55.288 369.556 55.032C369.812 54.6907 370.111 54.4773 370.452 54.392C371.476 53.7093 372.457 53.624 373.396 54.136C374.42 54.5627 375.359 55.4587 376.212 56.824C376.98 58.4453 377.193 59.8107 376.852 60.92C376.511 61.944 375.572 63.3947 374.036 65.272C372.756 66.9787 371.561 67.9173 370.452 68.088C369.428 68.2587 368.319 67.8747 367.124 66.936ZM379.223 116.984C378.37 116.472 377.73 115.96 377.303 115.448C376.876 114.936 376.663 114.211 376.663 113.272C376.663 111.992 376.834 110.669 377.175 109.304C377.516 107.853 377.858 106.445 378.199 105.08C378.37 103.544 378.583 102.008 378.839 100.472C379.18 98.8507 379.778 97.3573 380.631 95.992C381.57 92.7493 382.551 89.5493 383.575 86.392C384.599 83.1493 385.495 79.8213 386.263 76.408C387.372 73.2507 388.354 70.4773 389.207 68.088C390.146 65.6133 391.298 62.4987 392.663 58.744C393.431 56.6107 394.071 54.3493 394.583 51.96C395.18 49.4853 396.076 47.2667 397.271 45.304C397.783 44.536 398.167 43.896 398.423 43.384C398.764 42.7867 399.106 42.232 399.447 41.72C399.532 41.3787 399.788 41.1653 400.215 41.08C400.727 40.9947 401.282 41.0373 401.879 41.208C402.476 41.3787 402.946 41.6773 403.287 42.104C403.543 42.0187 403.842 42.2747 404.183 42.872C404.61 43.384 404.994 43.9813 405.335 44.664C405.676 45.3467 405.804 45.944 405.719 46.456C405.719 46.7973 405.634 47.2667 405.463 47.864C405.378 48.4613 405.164 49.016 404.823 49.528C404.482 49.8693 404.14 50.3813 403.799 51.064C403.543 51.6613 403.116 52.5147 402.519 53.624C402.178 54.7333 401.879 55.8853 401.623 57.08C401.367 58.1893 401.026 59.2133 400.599 60.152C400.258 61.176 399.831 62.1573 399.319 63.096C398.892 64.0347 398.594 64.8027 398.423 65.4C397.826 67.3627 397.1 69.2827 396.247 71.16C395.479 73.0373 394.796 75.0427 394.199 77.176C393.602 79.224 393.004 81.3573 392.407 83.576C391.81 85.7093 390.956 87.7573 389.847 89.72C389.25 90.6587 388.823 91.8533 388.567 93.304C388.311 94.7547 388.055 96.2053 387.799 97.656C387.287 99.192 386.818 100.643 386.391 102.008C386.05 103.288 385.879 104.099 385.879 104.44C385.367 106.317 384.983 108.195 384.727 110.072C384.556 111.864 384.13 113.443 383.447 114.808C383.362 115.661 383.191 116.344 382.935 116.856C382.679 117.368 382.252 117.667 381.655 117.752C381.058 117.752 380.247 117.496 379.223 116.984ZM398.928 124.152C397.819 123.725 397.008 123.085 396.496 122.232C395.984 121.293 395.685 119.971 395.6 118.264C395.6 117.24 395.771 115.875 396.112 114.168C396.453 112.461 396.837 110.499 397.264 108.28C397.264 108.109 397.264 107.939 397.264 107.768C397.349 107.512 397.392 107.341 397.392 107.256C397.477 106.915 397.563 106.403 397.648 105.72C397.819 105.037 397.947 104.525 398.032 104.184C398.117 103.757 398.16 103.757 398.16 104.184L399.056 100.728C399.483 99.192 399.909 97.656 400.336 96.12C400.763 94.584 401.147 93.2613 401.488 92.152C401.829 90.9573 402.043 90.2747 402.128 90.104C402.128 90.104 402.299 89.6347 402.64 88.696C402.981 87.672 403.323 86.6907 403.664 85.752C405.115 81.7413 406.437 78.3707 407.632 75.64C408.827 72.824 409.893 70.776 410.832 69.496C410.917 69.24 411.045 68.9413 411.216 68.6C411.387 68.1733 411.515 67.832 411.6 67.576C411.685 66.8933 411.771 66.3813 411.856 66.04C412.027 65.6133 412.24 65.2293 412.496 64.888C412.667 64.5467 412.923 64.12 413.264 63.608C413.605 63.0107 413.989 62.2853 414.416 61.432L414.928 60.024C415.44 58.9147 416.08 57.6773 416.848 56.312C417.616 54.9467 418.171 53.9653 418.512 53.368C418.853 52.6 419.365 51.704 420.048 50.68C420.731 49.5707 421.243 48.8453 421.584 48.504L421.456 48.376C421.883 47.608 422.395 47.1813 422.992 47.096C423.675 46.9253 424.4 46.84 425.168 46.84C426.363 46.84 427.045 47.0107 427.216 47.352C427.387 47.6933 427.472 48.4613 427.472 49.656C427.472 50.936 427.429 51.8747 427.344 52.472C427.344 52.984 427.003 53.5813 426.32 54.264H426.448C426.619 54.0933 426.576 54.3067 426.32 54.904C426.064 55.416 425.851 55.8 425.68 56.056C425.509 56.4827 425.296 56.952 425.04 57.464C424.869 57.976 424.656 58.36 424.4 58.616C424.144 58.9573 423.504 60.1093 422.48 62.072C421.541 63.9493 420.432 66.168 419.152 68.728C417.957 71.288 416.805 73.7627 415.696 76.152C414.587 78.5413 413.776 80.376 413.264 81.656L412.624 83.576C412.453 83.9173 412.368 84.1733 412.368 84.344C412.112 84.9413 411.856 85.5387 411.6 86.136C411.344 86.7333 411.088 87.2453 410.832 87.672L408.656 95.096L408.016 97.784L406.864 100.6L406.096 103.032C405.925 103.544 405.797 104.013 405.712 104.44C405.627 104.867 405.456 105.208 405.2 105.464C405.2 105.549 405.157 105.677 405.072 105.848C405.072 105.933 405.072 106.019 405.072 106.104C404.731 107.469 404.347 109.389 403.92 111.864C403.493 114.339 403.195 116.941 403.024 119.672C403.024 119.757 402.981 119.843 402.896 119.928C402.896 120.013 402.896 120.099 402.896 120.184C402.64 121.976 402.213 123.171 401.616 123.768C401.019 124.365 400.123 124.493 398.928 124.152ZM428.233 123.512C426.612 122.829 425.076 121.933 423.625 120.824C422.174 119.629 421.236 118.648 420.809 117.88C420.809 117.112 420.937 116.6 421.193 116.344C421.449 116.003 422.174 115.875 423.369 115.96C424.649 115.96 426.697 116.131 429.513 116.472C430.537 116.472 431.817 116.387 433.353 116.216C434.889 116.045 436.297 115.789 437.577 115.448C438.942 115.107 439.71 114.68 439.881 114.168C440.308 114.168 440.393 114.04 440.137 113.784C439.881 113.443 439.582 113.101 439.241 112.76C438.9 112.76 438.516 112.632 438.089 112.376C437.662 112.035 437.278 111.864 436.937 111.864C436.937 111.437 436.51 110.968 435.657 110.456C434.889 109.859 434.078 109.389 433.225 109.048C431.348 107.512 429.726 106.147 428.361 104.952C426.996 103.672 426.484 102.819 426.825 102.392C426.825 102.051 426.825 101.88 426.825 101.88C426.825 101.795 426.825 101.752 426.825 101.752C426.228 101.752 425.545 100.899 424.777 99.192C424.094 97.4853 423.753 95.9493 423.753 94.584C423.753 93.56 424.052 92.28 424.649 90.744C425.246 89.1227 426.057 87.4587 427.081 85.752C428.105 84.0453 429.172 82.6373 430.281 81.528C431.817 80.0773 433.737 78.5413 436.041 76.92C438.345 75.2133 440.606 73.72 442.825 72.44C445.129 71.0747 447.049 70.1787 448.585 69.752C450.121 69.1547 451.529 68.856 452.809 68.856C454.174 68.856 455.369 69.1547 456.393 69.752C457.246 70.1787 458.014 70.8187 458.697 71.672C459.465 72.44 460.105 73.2507 460.617 74.104C461.214 74.872 461.598 75.5547 461.769 76.152C461.769 77.176 461.684 78.328 461.513 79.608C461.342 80.8027 461.086 81.8693 460.745 82.808C460.489 83.7467 460.062 84.216 459.465 84.216C459.465 84.216 459.337 84.2587 459.081 84.344C458.91 84.344 458.825 84.5573 458.825 84.984C458.825 85.8373 458.185 86.8187 456.905 87.928C455.284 89.0373 453.876 89.72 452.681 89.976C451.486 90.1467 450.761 89.6773 450.505 88.568C450.249 88.2267 450.078 87.928 449.993 87.672C449.908 87.416 449.694 87.288 449.353 87.288C449.353 87.288 449.225 87.16 448.969 86.904C448.713 86.648 448.585 86.2213 448.585 85.624C448.585 85.2827 448.713 84.984 448.969 84.728C449.225 84.3867 449.353 84.216 449.353 84.216C449.78 84.216 450.334 83.7467 451.017 82.808C451.7 81.784 452.297 80.7173 452.809 79.608C453.406 78.4133 453.705 77.6027 453.705 77.176C453.705 76.664 453.62 76.3653 453.449 76.28C453.364 76.1947 452.98 76.152 452.297 76.152C451.102 76.664 449.652 77.3467 447.945 78.2C446.238 79.0533 444.617 79.9067 443.081 80.76C441.63 81.528 440.564 82.2533 439.881 82.936C439.54 83.5333 439.326 83.9173 439.241 84.088C439.156 84.1733 438.942 84.216 438.601 84.216C438.601 83.8747 438.302 84.0453 437.705 84.728C437.193 85.3253 436.51 86.1787 435.657 87.288C434.889 88.3973 434.121 89.5067 433.353 90.616C432.67 91.64 432.158 92.408 431.817 92.92C431.646 93.0907 431.433 93.6027 431.177 94.456C431.006 95.224 430.921 95.9493 430.921 96.632C430.58 97.656 430.622 98.3813 431.049 98.808C431.476 99.1493 432.414 99.9173 433.865 101.112C436.852 103.331 439.198 105.165 440.905 106.616C442.612 108.067 443.892 109.261 444.745 110.2C445.598 111.139 446.11 111.992 446.281 112.76C447.817 115.32 448.286 117.283 447.689 118.648C447.092 120.013 445.641 121.208 443.337 122.232C442.484 122.659 441.076 123 439.113 123.256C437.15 123.512 435.145 123.64 433.097 123.64C431.049 123.725 429.428 123.683 428.233 123.512Z" fill="black"/>
<path fill-rule="evenodd" clip-rule="evenodd" d="M398.081 204.145C318.232 205.317 238.343 209.967 158.842 218.28C121.044 222.232 77.1499 221.738 40.491 235.214C38.6644 235.892 39.0123 237.927 39.0518 238.13C39.1309 238.547 39.4631 239.932 40.918 240C41.0762 240.009 42.1911 239.816 42.6181 239.748C53.4433 238.004 64.2291 235.97 75.0623 234.323C112.465 228.617 149.977 224.305 187.546 220.527C237.41 215.509 287.701 212.835 337.7 210.742C365.068 209.599 393.092 211.12 420.546 208.756C430.628 208.688 440.71 208.679 450.792 208.718C492.939 208.902 535.038 210.859 577.114 213.542C590.643 214.404 600.962 215.335 614.207 215.964C619.237 216.206 627.215 216.371 632.766 216.478C633.581 216.497 635.66 216.516 636.522 216.526C636.609 216.545 636.696 216.545 636.791 216.545C637.123 216.545 637.281 216.516 637.313 216.516C639.195 216.177 639.021 213.997 638.974 213.668C638.966 213.6 638.681 211.76 637.06 211.692C636.673 211.672 633.897 211.653 632.829 211.634C627.31 211.527 619.363 211.363 614.358 211.13C601.137 210.5 590.825 209.57 577.319 208.708C535.18 206.024 493.018 204.058 450.808 203.874C445.652 203.854 440.489 203.845 435.333 203.854C435.159 203.302 434.772 202.682 433.918 202.411C433.119 202.159 427.402 201.936 425.196 201.713C408.867 200.066 409.349 200.144 391.384 198.797C364.174 196.753 360.031 196.288 331.73 195.426C280.324 193.856 228.894 193.982 177.48 194.137C152.097 194.225 124.919 196.327 99.1483 192.403C107.641 191.183 116.165 190.291 124.674 189.274C153.726 185.806 182.801 183.655 211.972 182.144C281.945 178.52 352.028 177.077 421.978 182.018C407.088 182.192 392.206 182.599 377.316 182.861C316.706 183.946 255.51 183.132 195.026 188.761C193.943 188.867 193.128 190.03 193.207 191.357C193.286 192.694 194.243 193.692 195.327 193.595C255.731 187.966 316.84 188.79 377.372 187.705C399.861 187.307 422.341 186.591 444.83 186.804C452.548 186.881 460.265 187.23 467.983 187.346C469.509 187.375 473.439 187.743 474.001 187.588C475.242 187.249 475.511 186.125 475.59 185.573C475.629 185.244 475.756 183.345 473.858 182.667C460.906 178.036 437.002 178.249 424.413 177.339C353.602 172.204 282.648 173.638 211.806 177.3C182.564 178.821 153.417 180.981 124.286 184.459C114.109 185.67 103.909 186.717 93.7713 188.325C92.1345 188.586 88.4576 188.964 86.6784 189.361C85.9351 189.526 85.3974 189.758 85.1601 189.923C84.235 190.563 84.0689 191.493 84.0689 192.122C84.061 192.607 84.2271 194.312 86.1644 194.777C115.683 201.859 147.803 199.078 177.487 198.981C228.87 198.826 280.26 198.7 331.635 200.27C359.865 201.132 363.992 201.587 391.146 203.632C393.827 203.825 396.096 204 398.081 204.145Z" fill="black"/>
</svg>
