<svg width="56" height="56" viewBox="0 0 56 56" fill="none" xmlns="http://www.w3.org/2000/svg">
<g clip-path="url(#clip0_2_12)">
<path d="M16.322 11.7769L10.3108 4.0299C10.0605 3.65703 9.52619 3.61935 9.22589 3.95337L6.30328 7.64178C6.03576 7.99925 6.17354 8.51281 6.58409 8.6884L15.518 12.7469C15.8913 13.0564 16.4597 12.8457 16.541 12.3676C16.5788 12.1457 16.4953 11.9205 16.322 11.7769Z" fill="#FFE500" stroke="#45413C" stroke-linecap="round" stroke-linejoin="round"/>
<path d="M13.4504 17.7755L3.95488 14.6614C3.53779 14.4915 3.07089 14.753 2.99763 15.1974L2.58929 19.9197C2.59489 20.3724 3.01489 20.7059 3.45718 20.6088L13.361 19.0007C13.8392 18.9449 14.0777 18.3924 13.7902 18.0061C13.7061 17.8932 13.5864 17.8119 13.4504 17.7755Z" fill="#FFE500" stroke="#45413C" stroke-linecap="round" stroke-linejoin="round"/>
<path d="M12.6847 25.6374L3.81452 25.816C3.39441 25.8244 3.09691 26.2295 3.21462 26.6328L4.49096 31.1764C4.61357 31.5818 5.08467 31.764 5.44809 31.5466L13.0037 26.8115C13.4168 26.5456 13.387 25.9323 12.9502 25.7075C12.8679 25.6652 12.7773 25.6411 12.6847 25.6374Z" fill="#FFE500" stroke="#45413C" stroke-linecap="round" stroke-linejoin="round"/>
<path d="M25.039 1.2859C23.6257 1.43161 22.5364 2.59723 22.4865 4.01718L21.7462 17.8648C21.5038 22.1276 19.7042 24.042 18.8491 28.6111C17.9941 33.1802 18.211 32.9759 17.2793 33.9076L9.49399 41.6929L18.4279 52.0053L23.6096 47.2065C24.6671 46.2357 25.5632 45.1026 26.2642 43.8499C27.4028 41.8094 28.0004 39.5115 28 37.1749V3.99163C27.9908 2.3989 26.6261 1.15196 25.039 1.2859Z" fill="#FFCEBF"/>
<path d="M24.5285 11.1389C24.4845 10.2229 25.2197 9.45852 26.1366 9.46692C27.1658 9.4668 28 10.3011 28 11.3303V9.0202C28 7.99108 27.1657 7.15692 26.1366 7.1568C25.1666 7.1568 24.7199 7.85878 24.6561 8.82875L24.5285 11.1389Z" fill="#FFDCD1"/>
<path d="M25.2049 4.85953C26.3696 4.86105 27.4409 5.497 28 6.51865V3.9661C27.9761 2.38351 26.6162 1.15268 25.039 1.28591C23.6257 1.43163 22.5364 2.59725 22.4865 4.0172L22.3461 6.56975C22.9021 5.50796 24.0064 4.8474 25.2049 4.85953Z" fill="#FFDCD1"/>
<path d="M18.8491 28.6111C18.0067 33.1801 18.211 32.976 17.2793 33.9077L9.49399 41.693L11.1276 43.5691L17.2793 37.4175C18.211 36.4858 20.1509 33.6524 18.8491 28.6111Z" fill="#FFDCD1"/>
<path d="M25.039 1.2859C23.6257 1.43161 22.5364 2.59723 22.4865 4.01718L21.7462 17.8648C21.5038 22.1276 19.7042 24.042 18.8491 28.6111C17.9941 33.1802 18.211 32.9759 17.2793 33.9076L9.49399 41.6929L18.4279 52.0053L23.6096 47.2065C24.6671 46.2357 25.5632 45.1026 26.2642 43.8499C27.4028 41.8094 28.0004 39.5115 28 37.1749V3.99163C27.9908 2.3989 26.6261 1.15196 25.039 1.2859Z" stroke="#45413C" stroke-linecap="round" stroke-linejoin="round"/>
<path d="M28 9.0202C28 7.99108 27.1657 7.15692 26.1366 7.1568C25.1666 7.1568 24.7199 7.85878 24.6561 8.82875L23.9287 22.3063" stroke="#45413C" stroke-linecap="round" stroke-linejoin="round"/>
<path d="M1.67033 46.1727L9.64706 39.7913C10.1641 39.3763 10.9128 39.4262 11.3701 39.9062L21.0826 50.1164C21.5144 50.5665 21.5576 51.2628 21.1847 51.7628L19.3468 54.1239C19.1058 54.4453 18.7276 54.6344 18.3258 54.6344H2.4744C1.7695 54.6344 1.19818 54.063 1.19818 53.3581V47.1554C1.20063 46.7738 1.37388 46.4132 1.67033 46.1727Z" fill="#009FD9"/>
<path d="M13.7823 42.3694L11.3701 39.8168C10.9128 39.3368 10.1641 39.2869 9.64706 39.7019L1.67033 46.0833C1.37388 46.3238 1.20063 46.6844 1.19818 47.066V52.4392L13.7823 42.3694Z" fill="#00B8F0"/>
<path d="M1.67033 46.1727L9.64706 39.7913C10.1641 39.3763 10.9128 39.4262 11.3701 39.9062L21.0826 50.1164C21.5144 50.5665 21.5576 51.2628 21.1847 51.7628L19.3468 54.1239C19.1058 54.4453 18.7276 54.6344 18.3258 54.6344H2.4744C1.7695 54.6344 1.19818 54.063 1.19818 53.3581V47.1554C1.20063 46.7738 1.37388 46.4132 1.67033 46.1727Z" stroke="#45413C" stroke-linecap="round" stroke-linejoin="round"/>
<path d="M39.678 11.7769L45.6892 4.0299C45.9395 3.65703 46.4739 3.61935 46.7741 3.95337L49.6967 7.64178C49.9606 8.01068 49.8024 8.5295 49.3776 8.6884L40.4437 12.7469C40.0244 12.9835 39.5062 12.6773 39.5111 12.1959C39.5127 12.0403 39.5722 11.891 39.678 11.7769Z" fill="#FFE500" stroke="#45413C" stroke-linecap="round" stroke-linejoin="round"/>
<path d="M42.5496 17.7755L52.0451 14.6614C52.4622 14.4915 52.9291 14.753 53.0022 15.1974L53.4107 19.9197C53.4051 20.3724 52.9851 20.7059 52.5428 20.6088L42.6389 19.0007C42.1608 18.9449 41.9223 18.3924 42.2098 18.0061C42.2938 17.8932 42.4136 17.8119 42.5496 17.7755Z" fill="#FFE500" stroke="#45413C" stroke-linecap="round" stroke-linejoin="round"/>
<path d="M43.3153 25.6374L52.2493 25.816C52.6694 25.8244 52.9669 26.2295 52.8492 26.6328L51.5729 31.1764C51.4502 31.5818 50.9791 31.764 50.6157 31.5466L42.9708 26.8115C42.5581 26.5449 42.5887 25.9317 43.0258 25.7076C43.1154 25.6617 43.2147 25.6376 43.3153 25.6374Z" fill="#FFE500" stroke="#45413C" stroke-linecap="round" stroke-linejoin="round"/>
<path d="M30.961 1.2859C32.3743 1.43161 33.4637 2.59723 33.5136 4.01718L34.2921 17.8648C34.5345 22.1276 36.3341 24.042 37.1892 28.6111C38.0444 33.1802 37.8273 32.9759 38.759 33.9076L46.5443 41.6929L37.6104 52.0053L32.4287 47.2065C31.3712 46.2357 30.4751 45.1026 29.774 43.8499C28.6221 41.813 28.0113 39.5149 28 37.1749V3.99163C28.0092 2.3989 29.3739 1.15196 30.961 1.2859Z" fill="#FFCEBF"/>
<path d="M31.4715 11.1389C31.5155 10.2229 30.7803 9.45852 29.8634 9.46692C28.8343 9.4668 28 10.3011 28 11.3303V9.0202C28 7.99108 28.8342 7.1568 29.8634 7.1568C30.8334 7.1568 31.2801 7.85878 31.3566 8.82875L31.4715 11.1389Z" fill="#FFDCD1"/>
<path d="M30.7951 4.85953C29.6304 4.86105 28.5591 5.497 28 6.51865V3.9661C28.0239 2.38351 29.3838 1.15268 30.961 1.28591C32.3743 1.43163 33.4636 2.59725 33.5136 4.0172L33.6539 6.56975C33.0979 5.50796 31.9936 4.8474 30.7951 4.85953Z" fill="#FFDCD1"/>
<path d="M37.1509 28.6111C37.9933 33.1801 37.789 32.976 38.7207 33.9077L46.506 41.693L44.8724 43.5691L38.7207 37.4175C37.789 36.4858 35.8491 33.6524 37.1509 28.6111Z" fill="#FFDCD1"/>
<path d="M30.961 1.2859C32.3743 1.43161 33.4637 2.59723 33.5136 4.01718L34.2921 17.8648C34.5345 22.1276 36.3341 24.042 37.1892 28.6111C38.0444 33.1802 37.8273 32.9759 38.759 33.9076L46.5443 41.6929L37.6104 52.0053L32.4287 47.2065C31.3712 46.2357 30.4751 45.1026 29.774 43.8499C28.6221 41.813 28.0113 39.5149 28 37.1749V3.99163C28.0092 2.3989 29.3739 1.15196 30.961 1.2859Z" stroke="#45413C" stroke-linecap="round" stroke-linejoin="round"/>
<path d="M28 9.0202C28 7.99108 28.8342 7.1568 29.8634 7.1568C30.8334 7.1568 31.2801 7.85878 31.3439 8.82875L32.0713 22.3063" stroke="#45413C" stroke-linecap="round" stroke-linejoin="round"/>
<path d="M54.3297 46.1727L46.3528 39.7913C45.8359 39.3763 45.0872 39.4262 44.6299 39.9062L34.9174 50.1164C34.4856 50.5665 34.4425 51.2628 34.8153 51.7628L36.6532 54.2133C36.8942 54.5347 37.2724 54.7238 37.6741 54.7238H53.5256C54.2304 54.7238 54.8018 54.1524 54.8018 53.4475V47.1554C54.7994 46.7738 54.6261 46.4132 54.3297 46.1727Z" fill="#009FD9"/>
<path d="M42.2177 42.3694L44.6299 39.8168C45.0872 39.3368 45.8359 39.2869 46.353 39.7019L54.3297 46.0833C54.6261 46.3238 54.7994 46.6844 54.8018 47.066V52.4392L42.2177 42.3694Z" fill="#00B8F0"/>
<path d="M54.3297 46.1727L46.3528 39.7913C45.8359 39.3763 45.0872 39.4262 44.6299 39.9062L34.9174 50.1164C34.4856 50.5665 34.4425 51.2628 34.8153 51.7628L36.6532 54.2133C36.8942 54.5347 37.2724 54.7238 37.6741 54.7238H53.5256C54.2304 54.7238 54.8018 54.1524 54.8018 53.4475V47.1554C54.7994 46.7738 54.6261 46.4132 54.3297 46.1727Z" stroke="#45413C" stroke-linecap="round" stroke-linejoin="round"/>
</g>
<defs>
<clipPath id="clip0_2_12">
<rect width="56" height="56" fill="white"/>
</clipPath>
</defs>
</svg>
