<svg width="534" height="282" viewBox="0 0 534 282" fill="none" xmlns="http://www.w3.org/2000/svg">
<g clip-path="url(#clip0_28_56)">
<path fill-rule="evenodd" clip-rule="evenodd" d="M142.918 140.846C133.987 201.971 79.1418 231.661 21.8859 238.412C20.9027 238.53 20.1958 239.423 20.3136 240.406C20.4314 241.389 21.3239 242.096 22.3071 241.978C81.167 235.041 137.29 204.2 146.47 141.362C146.615 140.384 145.935 139.473 144.952 139.328C143.973 139.183 143.063 139.863 142.918 140.846Z" fill="black"/>
<path fill-rule="evenodd" clip-rule="evenodd" d="M23.1711 240.07C25.7174 238.207 28.9389 235.906 29.2968 235.634C38.9973 228.267 47.0349 219.79 54.1121 209.844C54.6875 209.038 54.4971 207.914 53.6906 207.339C52.8842 206.763 51.7606 206.954 51.1852 207.76C44.3255 217.406 36.5326 225.63 27.1221 232.775C26.5739 233.192 19.329 238.361 17.9425 239.517C17.3717 239.988 17.1951 240.432 17.1634 240.541C16.9731 241.112 17.0863 241.56 17.2403 241.886C17.4171 242.253 17.8564 242.788 18.7082 243.06C19.6008 243.341 21.5854 243.468 22.0838 243.54C29.6004 244.655 38.0867 245.244 45.8117 247.382C53.1788 249.421 59.8616 252.874 64.1478 259.792C64.6688 260.635 65.7789 260.893 66.6216 260.372C67.4643 259.851 67.7227 258.741 67.2017 257.898C62.4081 250.164 55.0046 246.2 46.7721 243.921C39.0923 241.796 30.6832 241.152 23.1711 240.07Z" fill="black"/>
<path d="M131.656 117.24C130.376 117.24 129.181 116.472 128.072 114.936C127.048 113.315 126.28 111.267 125.768 108.792C125.341 106.232 125.213 103.587 125.384 100.856C125.384 98.1253 125.512 95.9493 125.768 94.328C126.109 92.6213 126.451 90.9573 126.792 89.336C127.048 88.824 127.176 88.3973 127.176 88.056C127.261 87.7147 127.347 87.16 127.432 86.392C127.603 85.624 127.901 84.344 128.328 82.552C128.669 81.1013 129.011 79.9067 129.352 78.968C129.693 78.0293 130.035 77.3893 130.376 77.048C130.803 76.536 131.357 76.2373 132.04 76.152C132.723 75.9813 133.405 76.024 134.088 76.28C134.771 76.536 135.325 77.0053 135.752 77.688C136.264 78.1147 136.52 79.096 136.52 80.632C136.605 82.0827 136.52 83.6187 136.264 85.24C136.008 86.776 135.624 87.8853 135.112 88.568C134.941 88.9947 134.728 90.104 134.472 91.896C134.301 93.688 134.088 95.5653 133.832 97.528C133.661 99.4907 133.448 101.069 133.192 102.264C132.936 103.8 133.064 105.037 133.576 105.976C134.173 106.915 135.24 106.957 136.776 106.104C138.397 105.165 140.531 102.776 143.176 98.936C144.968 96.376 146.333 94.2853 147.272 92.664C148.211 91.0427 148.936 89.5493 149.448 88.184C150.045 86.7333 150.643 85.1973 151.24 83.576C151.667 82.2107 152.051 81.1013 152.392 80.248C152.819 79.3093 153.203 78.712 153.544 78.456C154.141 78.0293 154.824 77.8587 155.592 77.944C156.445 78.0293 157.384 78.4133 158.408 79.096C159.432 80.12 159.944 81.3573 159.944 82.808C159.944 84.1733 159.432 85.88 158.408 87.928C157.725 89.2933 157.043 91.0427 156.36 93.176C155.763 95.3093 155.251 97.4853 154.824 99.704C154.483 101.837 154.312 103.587 154.312 104.952C154.312 106.659 154.525 107.683 154.952 108.024C155.464 108.28 156.061 108.408 156.744 108.408C157.768 108.408 159.005 108.024 160.456 107.256C161.907 106.488 163.528 105.165 165.32 103.288C166.088 102.52 167.027 101.411 168.136 99.96C169.245 98.424 170.312 96.8453 171.336 95.224C172.445 93.5173 173.341 92.024 174.024 90.744C174.792 89.464 175.176 88.6533 175.176 88.312C175.176 87.8 175.56 87.0747 176.328 86.136C176.84 85.4533 177.224 84.9413 177.48 84.6C177.821 84.1733 178.419 83.7467 179.272 83.32C179.955 82.9787 180.552 82.936 181.064 83.192C181.576 83.3627 182.131 83.7893 182.728 84.472C183.155 84.8133 183.368 85.3253 183.368 86.008C183.453 86.6907 183.496 87.544 183.496 88.568C183.24 89.5067 182.813 90.744 182.216 92.28C181.704 93.7307 181.107 95.1387 180.424 96.504C179.827 97.784 179.315 98.68 178.888 99.192C178.547 99.5333 177.949 100.173 177.096 101.112C176.243 101.965 175.475 102.904 174.792 103.928C172.659 106.488 171.123 108.152 170.184 108.92C169.245 109.688 168.435 110.413 167.752 111.096C165.96 112.888 164.083 114.253 162.12 115.192C160.157 116.045 158.28 116.472 156.488 116.472C154.781 116.472 153.331 116.045 152.136 115.192C149.491 113.827 148.168 111.523 148.168 108.28C148.168 107.597 148.04 107 147.784 106.488C147.613 105.891 147.528 105.592 147.528 105.592C147.187 105.592 146.717 105.677 146.12 105.848C145.608 106.019 145.053 106.616 144.456 107.64C143.688 109.091 142.451 110.584 140.744 112.12C139.123 113.571 137.459 114.808 135.752 115.832C134.045 116.771 132.68 117.24 131.656 117.24ZM228.245 119.032C226.112 120.056 224.192 120.355 222.485 119.928C220.778 119.416 219.413 118.264 218.389 116.472C217.45 114.68 216.981 112.419 216.981 109.688C216.981 108.749 217.109 107.341 217.365 105.464C217.706 103.587 218.09 101.624 218.517 99.576C218.944 97.4427 219.413 95.608 219.925 94.072C220.181 93.304 220.352 92.7067 220.437 92.28C220.608 91.8533 220.522 91.64 220.181 91.64C219.84 91.64 219.413 91.8533 218.901 92.28C218.474 92.7067 218.133 93.048 217.877 93.304C216 94.84 214.037 96.7173 211.989 98.936C210.026 101.155 208.192 103.416 206.485 105.72C204.778 107.939 203.37 109.987 202.261 111.864C201.237 113.741 200.725 115.107 200.725 115.96C200.725 117.24 200.085 118.136 198.805 118.648C197.525 119.16 196.416 119.117 195.477 118.52C193.856 117.581 192.832 116.472 192.405 115.192C192.064 113.827 192.021 111.565 192.277 108.408C192.533 104.397 192.874 100.813 193.301 97.656C193.728 94.4987 194.41 91.0853 195.349 87.416C196.373 83.6613 197.696 79.096 199.317 73.72C200.426 70.7333 201.45 67.9173 202.389 65.272C203.328 62.5413 204.138 60.2373 204.821 58.36C205.589 56.4827 206.058 55.3307 206.229 54.904C206.656 54.4773 207.21 53.4533 207.893 51.832C208.576 50.1253 209.173 48.4187 209.685 46.712C210.282 45.0053 210.581 43.9813 210.581 43.64C210.581 42.9573 210.709 42.36 210.965 41.848C211.221 41.2507 211.52 40.7813 211.861 40.44C212.202 40.0987 212.501 39.8 212.757 39.544C213.013 39.288 213.141 39.16 213.141 39.16C213.568 39.16 214.08 39.288 214.677 39.544C215.36 39.8 216 40.184 216.597 40.696C217.194 41.1227 217.578 41.6773 217.749 42.36C218.346 43.5547 218.645 44.792 218.645 46.072C218.645 47.2667 218.261 48.76 217.493 50.552C216.81 52.344 215.616 54.8187 213.909 57.976C212.544 60.6213 211.306 63.352 210.197 66.168C209.088 68.984 208.021 71.928 206.997 75C206.57 76.28 205.973 78.072 205.205 80.376C204.522 82.68 203.797 85.0693 203.029 87.544C202.346 90.0187 201.749 92.2373 201.237 94.2C200.81 96.0773 200.597 97.272 200.597 97.784C200.597 98.3813 200.938 98.68 201.621 98.68C202.304 98.5947 202.986 98.0827 203.669 97.144C204.01 96.4613 204.736 95.608 205.845 94.584C206.954 93.56 207.85 92.7493 208.533 92.152C209.216 91.5547 210.154 90.7013 211.349 89.592C212.544 88.4827 213.824 87.3733 215.189 86.264C216.554 85.0693 217.834 84.088 219.029 83.32C220.224 82.4667 221.162 82.04 221.845 82.04C222.954 82.04 223.978 82.4667 224.917 83.32C225.856 84.088 226.496 84.9413 226.837 85.88C227.093 86.136 227.349 86.4773 227.605 86.904C227.861 87.2453 228.032 87.5013 228.117 87.672C228.544 88.0133 228.544 89.5067 228.117 92.152C227.776 94.712 226.922 98.04 225.557 102.136C224.789 105.293 224.149 107.981 223.637 110.2C223.21 112.333 223.338 113.4 224.021 113.4C224.021 113.4 224.448 113.144 225.301 112.632C226.24 112.12 227.221 111.565 228.245 110.968C230.72 109.347 232.853 108.408 234.645 108.152C236.522 107.811 237.461 108.109 237.461 109.048C237.461 109.389 237.333 109.731 237.077 110.072C236.821 110.328 236.693 110.627 236.693 110.968C236.693 110.968 236.693 111.011 236.693 111.096C236.693 111.096 236.693 111.267 236.693 111.608C236.693 111.779 236.138 112.461 235.029 113.656C233.92 114.765 232.682 115.917 231.317 117.112C230.037 118.221 229.013 118.861 228.245 119.032ZM246.946 118.392C246.605 117.709 246.178 117.197 245.666 116.856C245.154 116.429 244.898 116.045 244.898 115.704C244.898 115.363 244.855 115.021 244.77 114.68C244.77 114.253 244.599 113.869 244.258 113.528C243.831 113.016 243.874 111.864 244.386 110.072C244.898 108.195 245.751 105.933 246.946 103.288C248.141 100.557 249.549 97.6987 251.17 94.712C251.853 94.0293 252.535 93.1333 253.218 92.024C253.901 90.9147 254.413 90.1893 254.754 89.848C254.754 89.5067 254.882 89.208 255.138 88.952C255.394 88.6107 255.693 88.44 256.034 88.44V87.672C256.034 87.2453 256.418 86.52 257.186 85.496C258.039 84.472 259.063 83.3627 260.258 82.168C261.453 80.888 262.69 79.6933 263.97 78.584C265.25 77.3893 266.317 76.536 267.17 76.024C268.962 74.8293 270.797 74.104 272.674 73.848C274.637 73.592 276.301 74.0187 277.666 75.128C277.922 75.384 278.349 75.8107 278.946 76.408C279.543 77.0053 280.226 77.688 280.994 78.456C281.847 79.1387 282.701 79.864 283.554 80.632L288.29 84.856L285.986 91.256C284.877 94.6693 284.578 97.656 285.09 100.216C285.687 102.776 286.541 104.995 287.65 106.872C288.077 107.811 288.93 108.707 290.21 109.56C291.575 110.413 292.855 110.925 294.05 111.096C294.733 111.181 295.373 111.437 295.97 111.864C296.567 112.291 296.866 112.973 296.866 113.912C296.866 114.765 296.695 115.448 296.354 115.96C296.013 116.472 295.415 116.813 294.562 116.984C291.746 117.325 289.101 116.643 286.626 114.936C284.237 113.229 282.018 110.413 279.97 106.488C279.629 105.976 279.159 105.037 278.562 103.672C278.05 102.221 277.751 101.283 277.666 100.856C277.325 101.283 276.685 102.093 275.746 103.288C274.807 104.397 274.082 105.208 273.57 105.72C267.511 111.864 262.263 116.003 257.826 118.136C253.474 120.184 249.847 120.269 246.946 118.392ZM251.554 111.224C251.554 111.821 252.45 111.821 254.242 111.224C256.119 110.541 258.125 109.347 260.258 107.64C263.159 105.165 266.061 102.435 268.962 99.448C271.949 96.4613 274.338 93.688 276.13 91.128L278.946 86.52C278.093 84.5573 277.154 83.2347 276.13 82.552C275.191 81.784 274.381 81.4 273.698 81.4C272.589 81.4 270.925 82.424 268.706 84.472C266.573 86.52 264.269 89.2507 261.794 92.664C259.319 96.0773 256.973 99.832 254.754 103.928C253.901 105.635 253.133 107.299 252.45 108.92C251.853 110.456 251.554 111.224 251.554 111.224ZM313.445 129.4C310.629 128.973 308.709 127.907 307.685 126.2C306.746 124.579 306.533 122.061 307.045 118.648C307.557 117.027 307.856 115.576 307.941 114.296C308.112 112.931 308.496 112.077 309.093 111.736C309.093 111.736 309.136 111.608 309.221 111.352C309.392 111.096 309.349 110.84 309.093 110.584C309.093 109.475 309.477 107.939 310.245 105.976C310.416 105.464 310.629 104.867 310.885 104.184C311.226 103.416 311.397 103.032 311.397 103.032C310.97 102.349 310.97 101.795 311.397 101.368C311.824 100.941 312.25 100.557 312.677 100.216C313.189 99.7893 313.232 99.32 312.805 98.808C312.634 98.4667 312.848 97.6987 313.445 96.504C314.042 95.224 314.725 93.9013 315.493 92.536C316.261 91.1707 316.773 90.104 317.029 89.336C317.029 89.1653 317.242 88.568 317.669 87.544C318.096 86.52 318.608 85.3253 319.205 83.96C319.802 82.5947 320.357 81.3573 320.869 80.248C321.466 79.1387 321.85 78.4133 322.021 78.072C322.874 77.6453 322.533 77.3467 320.997 77.176C319.461 77.0053 317.84 76.9627 316.133 77.048C313.488 76.9627 311.354 76.8347 309.733 76.664C308.197 76.4933 306.917 76.1093 305.893 75.512C304.869 74.3173 304.485 73.464 304.741 72.952C305.082 72.3547 306.106 72.0133 307.813 71.928C308.922 71.8427 309.776 71.8 310.373 71.8C311.056 71.8 311.909 71.7573 312.933 71.672C314.042 71.5013 315.749 71.288 318.053 71.032L324.581 70.52L324.965 68.344C325.648 67.2347 326.202 66.2533 326.629 65.4C327.141 64.4613 327.568 63.5227 327.909 62.584C328.25 61.6453 328.506 60.664 328.677 59.64C328.677 59.64 329.061 58.9573 329.829 57.592C330.597 56.1413 331.066 54.648 331.237 53.112C332.261 51.4053 333.157 49.8693 333.925 48.504C334.693 47.0533 335.162 46.1573 335.333 45.816C336.272 45.048 336.912 44.664 337.253 44.664C337.68 44.664 338.533 45.0907 339.813 45.944C340.581 46.3707 341.264 46.8827 341.861 47.48C342.458 48.0773 342.842 48.7173 343.013 49.4C343.184 49.9973 342.928 50.5947 342.245 51.192C342.074 51.5333 341.818 52.1733 341.477 53.112C341.136 53.9653 340.88 54.6907 340.709 55.288C340.197 55.8853 339.557 56.8667 338.789 58.232C338.106 59.512 337.637 60.8347 337.381 62.2C336.698 63.6507 336.058 64.9733 335.461 66.168C334.864 67.2773 334.394 67.832 334.053 67.832C334.224 68.6853 334.736 69.112 335.589 69.112C336.442 69.0267 337.85 68.9413 339.813 68.856C341.434 68.6853 342.544 68.5147 343.141 68.344C343.824 68.088 344.592 68.1733 345.445 68.6C345.872 69.1973 346.213 69.88 346.469 70.648C346.725 71.416 346.768 72.1413 346.597 72.824C346.512 73.4213 346.17 73.848 345.573 74.104C345.146 74.104 344.25 74.36 342.885 74.872C341.605 75.2987 339.984 75.5547 338.021 75.64L331.237 76.28L329.061 80.632C328.464 81.7413 327.952 82.7653 327.525 83.704C327.098 84.5573 326.8 85.0693 326.629 85.24C326.629 85.752 326.33 86.52 325.733 87.544C325.221 88.568 324.666 89.6773 324.069 90.872C323.557 92.3227 322.96 93.6453 322.277 94.84C321.68 96.0347 321.381 96.632 321.381 96.632C321.04 96.632 320.869 96.888 320.869 97.4C321.296 98.424 321.168 99.192 320.485 99.704C320.058 99.96 319.674 100.344 319.333 100.856C319.077 101.283 318.949 101.496 318.949 101.496C319.29 101.837 319.333 102.264 319.077 102.776C318.906 103.288 318.65 103.843 318.309 104.44C318.309 105.123 318.096 106.104 317.669 107.384C317.328 108.664 316.944 109.859 316.517 110.968C316.602 112.504 316.688 113.485 316.773 113.912C316.858 114.339 317.072 114.509 317.413 114.424C317.84 114.509 318.224 114.509 318.565 114.424C318.906 114.339 319.248 114.296 319.589 114.296C320.784 113.784 320.144 116.771 317.669 123.256C316.304 125.389 315.365 126.925 314.853 127.864C314.341 128.888 313.872 129.4 313.445 129.4ZM381.7 119.032C380.42 118.861 379.311 117.965 378.372 116.344C377.519 114.637 377.007 113.101 376.836 111.736C376.921 111.053 377.007 110.072 377.092 108.792C377.263 107.512 377.433 106.189 377.604 104.824C377.945 103.203 378.415 101.24 379.012 98.936C379.609 96.5467 380.207 94.1573 380.804 91.768C381.487 89.3787 382.084 87.3307 382.596 85.624C383.108 83.9173 383.449 82.8933 383.62 82.552C384.047 81.8693 384.729 81.6987 385.668 82.04C386.607 82.3813 387.375 82.8933 387.972 83.576C388.484 84.2587 388.783 85.0693 388.868 86.008C389.039 86.9467 388.911 88.312 388.484 90.104C388.143 91.896 387.46 94.5413 386.436 98.04C385.497 101.453 384.772 104.227 384.26 106.36C383.833 108.408 383.663 110.584 383.748 112.888C383.407 115.789 383.151 117.581 382.98 118.264C382.809 118.861 382.383 119.117 381.7 119.032ZM396.42 67.96C396.079 68.216 395.737 68.344 395.396 68.344C395.14 68.2587 394.671 68.0027 393.988 67.576C393.391 67.4907 392.623 67.1067 391.684 66.424C390.831 65.656 390.063 64.888 389.38 64.12C388.783 63.2667 388.484 62.7547 388.484 62.584C388.399 61.7307 388.441 60.664 388.612 59.384C388.868 58.0187 389.337 56.824 390.02 55.8C390.703 54.6907 391.684 54.0933 392.964 54.008C393.305 54.008 393.604 54.0507 393.86 54.136C394.116 54.2213 394.884 54.52 396.164 55.032C396.847 56.312 397.529 57.7627 398.212 59.384C398.895 60.92 399.193 62.456 399.108 63.992C399.023 65.4427 398.127 66.7653 396.42 67.96ZM463.711 125.432C462.602 125.688 461.663 125.517 460.895 124.92C460.212 124.408 459.7 123.64 459.359 122.616C458.676 120.653 458.164 118.52 457.823 116.216C457.567 113.827 457.524 111.736 457.695 109.944L457.951 107.256L452.959 111.224C450.058 113.784 447.242 115.619 444.511 116.728C441.866 117.837 439.519 118.392 437.471 118.392C436.532 118.221 435.594 117.88 434.655 117.368C433.716 116.856 432.863 116.216 432.095 115.448C431.412 114.68 430.858 113.869 430.431 113.016C429.919 111.821 429.748 110.2 429.919 108.152C430.175 106.104 430.687 103.885 431.455 101.496C432.308 99.0213 433.332 96.632 434.527 94.328C435.807 91.9387 437.258 89.848 438.879 88.056C441.695 83.7893 444.724 81.1867 447.967 80.248C451.21 79.3093 454.41 79.7787 457.567 81.656C459.786 82.5947 461.151 83.0213 461.663 82.936C462.26 82.8507 462.772 81.8693 463.199 79.992C463.54 78.6267 463.882 77.2613 464.223 75.896C464.564 74.4453 465.119 72.5253 465.887 70.136C468.02 63.6507 469.855 58.5733 471.391 54.904C473.012 51.2347 474.463 48.0347 475.743 45.304C476.682 43.3413 477.45 42.1467 478.047 41.72C478.73 41.208 479.412 40.9947 480.095 41.08C481.034 41.08 481.887 41.4213 482.655 42.104C483.423 42.7867 484.02 43.7253 484.447 44.92C484.788 45.688 484.916 46.3707 484.831 46.968C484.831 47.48 484.575 48.2053 484.063 49.144C482.954 51.192 481.631 53.9227 480.095 57.336C478.644 60.664 477.151 64.3333 475.615 68.344C474.164 72.3547 472.799 76.3227 471.519 80.248C470.239 84.1733 469.172 87.6293 468.319 90.616C467.807 92.4933 467.338 94.8827 466.911 97.784C466.57 100.685 466.271 103.672 466.015 106.744C465.759 109.731 465.588 112.419 465.503 114.808C465.503 117.112 465.588 118.605 465.759 119.288C466.271 120.995 466.484 122.275 466.399 123.128C466.399 123.981 466.186 124.536 465.759 124.792C465.332 125.133 464.65 125.347 463.711 125.432ZM442.079 111.224C443.274 110.968 444.426 110.499 445.535 109.816C446.73 109.133 447.967 108.323 449.247 107.384C451.807 105.421 454.026 103.629 455.903 102.008C457.78 100.387 459.018 97.912 459.615 94.584C459.786 92.9627 459.615 91.6827 459.103 90.744C458.676 89.72 457.951 88.7813 456.927 87.928C455.903 87.2453 454.495 86.9893 452.703 87.16C450.996 87.2453 449.204 88.1413 447.327 89.848C445.279 91.7253 443.274 94.2427 441.311 97.4C439.434 100.557 438.026 104.44 437.087 109.048C436.916 109.901 437.172 110.584 437.855 111.096C438.538 111.608 439.946 111.651 442.079 111.224ZM493.353 122.232C492.244 122.317 491.348 122.232 490.665 121.976C489.982 121.635 489.129 121.165 488.105 120.568C486.228 119.117 484.82 117.667 483.881 116.216C483.028 114.68 482.644 113.187 482.729 111.736C482.9 110.968 482.9 110.285 482.729 109.688C482.644 109.091 482.601 108.792 482.601 108.792C482.089 108.365 481.918 108.109 482.089 108.024C482.26 107.853 482.388 107.597 482.473 107.256C483.156 107.085 483.241 106.616 482.729 105.848C482.473 105.165 482.601 103.629 483.113 101.24C483.71 98.7653 484.478 96.4613 485.417 94.328C485.844 93.3893 486.441 92.152 487.209 90.616C488.062 89.08 489.001 87.544 490.025 86.008C491.049 84.3867 491.988 83.1067 492.841 82.168C494.718 80.0347 496.382 78.456 497.833 77.432C499.369 76.3227 501.076 75.4267 502.953 74.744C504.66 74.0613 505.897 73.6773 506.665 73.592C507.433 73.5067 508.5 74.0187 509.865 75.128C511.913 75.7253 513.449 76.5787 514.473 77.688C515.582 78.712 516.436 80.3333 517.033 82.552C517.716 85.0267 517.929 87.9707 517.673 91.384C517.502 94.712 516.052 99.0213 513.321 104.312C511.7 107.64 510.078 110.157 508.457 111.864C506.921 113.571 505.044 115.363 502.825 117.24C501.204 118.605 499.71 119.672 498.345 120.44C496.98 121.208 495.316 121.805 493.353 122.232ZM503.593 107C505.3 104.44 506.622 102.093 507.561 99.96C508.585 97.7413 509.396 94.968 509.993 91.64C510.164 90.7013 510.206 89.5493 510.121 88.184C510.036 86.7333 509.822 85.4107 509.481 84.216C509.225 83.0213 508.841 82.3813 508.329 82.296C507.22 81.8693 505.982 81.8693 504.617 82.296C503.252 82.6373 501.758 83.6613 500.137 85.368C498.686 87.0747 497.364 88.9947 496.169 91.128C495.06 93.2613 494.036 95.608 493.097 98.168C492.158 100.728 491.262 103.459 490.409 106.36C489.556 109.603 489.598 112.077 490.537 113.784C491.561 115.491 493.225 115.917 495.529 115.064C497.833 114.125 500.521 111.437 503.593 107Z" fill="black"/>
</g>
<defs>
<clipPath id="clip0_28_56">
<rect width="1768" height="1050" fill="white" transform="translate(-360 -654)"/>
</clipPath>
</defs>
</svg>
